<?xml version="1.0" encoding="utf-8"?>
<!-- Generator: Adobe Illustrator 24.0.0, SVG Export Plug-In . SVG Version: 6.00 Build 0)  -->
<svg version="1.1" id="Layer_2_1_" xmlns="http://www.w3.org/2000/svg" xmlns:xlink="http://www.w3.org/1999/xlink" x="0px" y="0px"
	 viewBox="0 0 1167.1 196.8" style="enable-background:new 0 0 1167.1 196.8;" xml:space="preserve">
<style type="text/css">
	.st0{fill:#FFFFFF;}
</style>
<title>logo-music</title>
<path class="st0" d="M107.6,59.5c-8.9-0.7-16.6,4-25.2,5.5c-0.6,0.2-1.5-1.3-2.4-2.1c4-3,3.5-8.9-1.2-11.5c-0.2-1.3-0.2-2.6,0-3.9
	c0.4-0.3,3.4,0.3,3.7-0.1s0.4-3.9,0.1-4.3s-3.7,0-3.8-0.2s0.1-3.5-0.2-3.7c-0.5-0.2-1.1-0.2-1.6-0.2c-0.6-0.1-1.1,0-1.6,0.2
	c-0.3,0.3,0,3.5-0.2,3.7s-3.6-0.1-3.8,0.2s-0.4,3.9,0.1,4.3s3.4-0.2,3.7,0.1c0.2,1.3,0.2,2.6,0,3.9C70.5,54,70,60,74,63
	c-0.8,0.8-1.7,2.3-2.5,2.2c-8.7-1.5-16.3-6.3-25.2-5.5c-5,0.3-9.1,4-9.9,8.9c-1.5,9.1,4.9,16,8.1,23.8c1.2,2.7,1.8,5.6,1.7,8.5h61.6
	c0-2.9,0.5-5.8,1.7-8.5c3.2-7.7,9.7-14.7,8.1-23.8C116.8,63.6,112.6,59.9,107.6,59.5z M73.3,88.6c-0.8,4.6-3.4,7.5-5.5,7.5
	c-1.3,0-2.5-0.5-3.5-1.4c-1.4-1.2-2.6-3.2-2.2-4.4c0.3-0.4,4,0.2,4.3-0.2s-0.4-3.3-0.9-3.7s-3.8,0.1-4.3-0.3s-0.9-4-1.4-4.2
	c0,0-3.5-0.6-3.8,0s1.2,3.6,0.9,4s-5-0.5-5.1,0.1s0.3,3.2,0.7,3.6s4.8,0.5,4.8,0.5c0.9,1,1.3,2.2,1.2,3.6c0,1.8-1.5,2.8-3.7,2.2
	c-4.3-1.2-9.6-10.5-12.7-16.9c-2.3-4.7-3.7-12.4,2.4-14.8c3.7-1.4,7.6-0.6,11.6,0.6c4.2,1.3,9.6,2.9,12.9,4.9
	c0.8,0.5-0.9,0.1,1.9,6.5C72.4,79.1,73.8,85.4,73.3,88.6z M111.4,78.9c-3.1,6.4-8.5,15.7-12.7,16.9c-2.3,0.6-3.7-0.3-3.7-2.2
	c0-1.5,0.3-2.9,1.2-3.6c0,0,4.4,0,4.8-0.5s0.8-3,0.7-3.6s-4.8,0.4-5.1-0.1s1.2-3.6,0.9-4s-3.8,0-3.8,0c-0.4,0.2-0.9,3.8-1.4,4.2
	s-3.8-0.1-4.3,0.3s-1.2,3.3-0.9,3.7s4-0.2,4.3,0.2c0.4,1.2-0.7,3.2-2.2,4.4c-0.9,0.9-2.2,1.4-3.5,1.4c-2.1,0-4.7-2.9-5.5-7.5
	c-0.5-3.2,0.8-9.5,2.1-12.5c2.9-6.4,1.1-6,1.9-6.5c3.3-2,8.7-3.7,12.9-4.9c4-1.2,7.8-2,11.6-0.6C115.2,66.5,113.7,74.2,111.4,78.9z
	 M45.4,110.3h63V105h-63V110.3z"/>
<path class="st0" d="M161.9,59.8l-9.7,0.3c-3.7,0.1-5.3,0.5-6.3,1.9c-0.5,0.7-0.9,1.5-1.1,2.3c-0.1,0.6-0.4,0.8-0.7,0.8
	s-0.5-0.4-0.5-1c0-1,1.3-6.9,1.4-7.5c0.2-0.8,0.4-1.3,0.8-1.3s1.2,0.6,2.8,0.8c1.9,0.2,4.4,0.4,6.5,0.4h25.7c1.5,0,3-0.1,4.5-0.4
	c1-0.2,1.5-0.4,1.7-0.4c0.5,0,0.6,0.4,0.6,1.4c0,1.4-0.2,5.8-0.2,7.6c-0.1,0.6-0.2,1-0.6,1c-0.6,0-0.6-0.4-0.7-1.3l-0.1-0.7
	c-0.1-1.7-1.9-3.5-7.6-3.7l-8.2-0.2v26.6c0,6,0,11.1,0.4,13.9c0.2,1.8,0.6,3.3,2.6,3.5c0.9,0.1,2.4,0.3,3.3,0.3c0.7,0,1,0.2,1,0.5
	s-0.5,0.6-1.3,0.6c-4.3,0-8.4-0.2-10.2-0.2c-1.5,0-5.6,0.2-8.2,0.2c-0.8,0-1.3-0.2-1.3-0.6s0.3-0.5,1-0.5c0.8,0,1.6-0.1,2.4-0.3
	c1.3-0.3,1.7-1.7,1.9-3.6c0.4-4.6,0.5-9.2,0.4-13.8L161.9,59.8L161.9,59.8z"/>
<path class="st0" d="M227.7,81.5c0.2,0,0.4-0.2,0.4-0.4v-1.2c0-8.4-0.1-10.4-0.1-12.1c-0.1-1.9-0.6-2.5-2.5-3
	c-0.7-0.1-1.5-0.2-2.2-0.2c-0.6,0-1-0.2-1-0.6s0.4-0.5,1.3-0.5c3.1,0,7.1,0.1,8.6,0.1s5.1-0.1,7.4-0.1c0.8,0,1.3,0.1,1.3,0.5
	c0,0.5-0.4,0.6-1,0.6c-0.6,0-1.2,0.1-1.7,0.2c-1.5,0.3-1.9,1-2.1,3c-0.1,1.7-0.1,3.3-0.1,11.7v9.8c0,5.1,0,9.4,0.3,11.8
	c0.2,1.6,0.5,2.6,2.3,2.8c0.8,0.1,2,0.2,2.9,0.2c0.6,0,0.9,0.4,0.9,0.5c0,0.4-0.4,0.6-1.2,0.6c-3.7,0-7.5-0.2-9-0.2
	c-1.3,0-5.3,0.2-7.6,0.2c-0.8,0-1.3-0.2-1.3-0.6s0.3-0.5,0.9-0.5c0.7,0,1.4-0.1,2.1-0.2c1.2-0.3,1.5-1.3,1.7-2.9
	c0.3-2.4,0.3-6.6,0.3-11.7v-4.2c0-0.2-0.2-0.4-0.4-0.4h-21.6c-0.2,0-0.4,0.1-0.4,0.3c0,0,0,0,0,0.1v4.2c0,5.1,0.1,9.3,0.4,11.7
	c0.2,1.6,0.5,2.6,2.2,2.8c0.8,0.1,2.1,0.2,2.9,0.2c0.6,0,0.9,0.4,0.9,0.6c0,0.4-0.5,0.6-1.2,0.6c-3.7,0-7.6-0.2-9.3-0.2
	c-1.3,0-5.1,0.2-7.4,0.2c-0.7,0-1.1-0.2-1.1-0.6s0.2-0.6,0.9-0.6c0.7,0,1.3-0.1,2-0.2c1.2-0.3,1.5-1.3,1.7-2.9
	c0.3-2.4,0.3-6.7,0.3-11.8v-9.6c0-8.4,0-9.9-0.1-11.7c-0.1-1.9-0.6-2.5-2.5-3c-0.8-0.1-1.5-0.2-2.3-0.2c-0.6,0-1-0.2-1-0.6
	s0.4-0.5,1.3-0.5c3.1,0,6.8,0.1,8.4,0.1c1.4,0,5.3-0.1,7.6-0.1c0.8,0,1.2,0.1,1.2,0.5c0,0.5-0.4,0.6-1,0.6c-0.5,0-1.1,0.1-1.6,0.2
	c-1.6,0.3-2,1-2.2,3c-0.1,1.7-0.1,3.7-0.1,12.1v1.2c0,0.4,0.2,0.4,0.4,0.4H227.7z"/>
<path class="st0" d="M254.4,79.5c0-8.4,0-9.9-0.1-11.7c-0.1-1.9-0.6-2.5-2.5-3c-0.8-0.1-1.5-0.2-2.3-0.2c-0.6,0-1-0.2-1-0.6
	s0.4-0.5,1.3-0.5c3,0,6.7,0.1,8.3,0.1c1.8,0,14.5,0.1,15.6,0s1.9-0.3,2.4-0.4c0.3-0.1,0.6-0.2,0.9-0.3c0.4,0,0.4,0.3,0.4,0.5
	c-0.3,1.2-0.4,2.4-0.5,3.6c-0.1,0.5-0.2,3-0.4,3.6c-0.1,0.3-0.2,0.9-0.6,0.9s-0.5-0.3-0.5-0.7c0-0.7-0.1-1.4-0.4-2
	c-0.5-1-0.9-1.7-3.7-2c-1-0.1-7.8-0.3-8.9-0.3c-0.3,0-0.4,0.2-0.4,0.6v13.6c0,0.4,0.1,0.6,0.4,0.6c1.3,0,8.7,0,10-0.1
	c1,0.1,2-0.2,2.7-0.8c0.5-0.4,0.6-0.7,0.9-0.7c0.3,0,0.5,0.3,0.5,0.6c0,0.3-0.1,1.3-0.5,4c-0.1,1.1-0.3,3.3-0.3,3.7
	s-0.1,1.3-0.5,1.3s-0.5-0.2-0.5-0.5c-0.1-0.6-0.1-1.3-0.2-2c-0.4-1.1-1-1.9-3.2-2.2c-1-0.1-7.6-0.3-8.9-0.3c-0.3,0-0.4,0.3-0.4,0.5
	v4.5c0,1.9-0.1,6.6,0,8.2c0.1,3.7,1.9,4.6,7.8,4.6c1.8,0.1,3.6-0.2,5.4-0.7c1.5-0.6,2.1-1.8,2.5-4.1c0.1-0.6,0.3-0.8,0.6-0.8
	s0.5,0.7,0.5,1.3c-0.1,2.1-0.3,4.1-0.8,6.1c-0.4,1.5-0.9,1.5-3.1,1.5c-4.3,0-7.8-0.1-10.5-0.2s-4.9-0.1-6.6-0.1
	c-0.6,0-1.9,0.1-3.3,0.1s-2.8,0.1-3.9,0.1c-0.7,0-1.1-0.2-1.1-0.6s0.2-0.5,0.9-0.5c0.7,0,1.3-0.1,2-0.2c1.2-0.3,1.5-1.3,1.7-2.9
	c0.3-2.4,0.3-6.7,0.3-11.8L254.4,79.5L254.4,79.5z"/>
<path class="st0" d="M312.6,75c0-9.8,0-11.7-0.1-13.8s-0.6-3.3-2.8-3.7c-0.8-0.1-1.7-0.2-2.5-0.2c-0.7,0-1.1-0.1-1.1-0.5
	s0.5-0.5,1.5-0.5c3.5,0,7.6,0.2,9.4,0.2c2,0,6.1-0.2,10-0.2c8.1,0,19,0,26,7.4c3.3,3.4,6.3,8.7,6.3,16.5c0.1,6.7-2.5,13.2-7.1,18.1
	c-3,3-9.8,7.6-21.8,7.6c-2.4,0-5-0.2-7.5-0.4s-4.7-0.4-6.4-0.4c-0.7,0-2.2,0-3.7,0.1s-3.2,0.1-4.5,0.1c-0.8,0-1.3-0.2-1.3-0.6
	s0.3-0.5,1-0.5c0.8,0,1.6-0.1,2.4-0.3c1.3-0.3,1.6-1.7,1.9-3.6c0.4-4.6,0.5-9.2,0.4-13.8L312.6,75L312.6,75z M320.7,82.1
	c0,6.9,0.1,11.8,0.1,13.1c0.1,1.6,0.2,4.2,0.7,4.9c0.8,1.3,3.4,2.6,8.5,2.6c6.7,0,11-1.3,15-4.7c4.2-3.6,5.5-9.5,5.5-16.2
	c0-8.3-3.5-13.6-6.2-16.2c-6-5.7-13.4-6.5-18.4-6.5c-1.4,0-2.8,0.1-4.2,0.5c-0.5,0.2-0.9,0.7-0.8,1.3c-0.1,2.2-0.1,7.8-0.1,13V82.1z
	"/>
<path class="st0" d="M369.5,79.5c0-8.4,0-9.9-0.1-11.7c-0.1-1.9-0.6-2.5-2.5-3c-0.8-0.1-1.5-0.2-2.3-0.2c-0.5,0-1-0.2-1-0.6
	s0.5-0.5,1.3-0.5c3,0,6.6,0.1,8.3,0.1c1.8,0,14.5,0.1,15.6,0s1.9-0.3,2.4-0.4c0.3-0.1,0.6-0.2,0.9-0.3c0.4,0,0.4,0.3,0.4,0.5
	c-0.3,1.2-0.4,2.4-0.5,3.6c-0.1,0.5-0.2,3-0.4,3.6c-0.1,0.3-0.2,0.9-0.6,0.9s-0.5-0.3-0.5-0.7c0-0.7-0.1-1.4-0.4-2
	c-0.5-1-0.9-1.7-3.7-2c-1-0.1-7.8-0.3-8.9-0.3c-0.3,0-0.4,0.2-0.4,0.6v13.7c0,0.4,0.1,0.6,0.4,0.6c1.3,0,8.8,0,10-0.1
	c1,0.1,2-0.2,2.7-0.8c0.5-0.4,0.6-0.7,0.9-0.7c0.3,0,0.5,0.3,0.5,0.6c0,0.3-0.1,1.3-0.5,4c-0.1,1.1-0.3,3.3-0.3,3.7
	s-0.1,1.3-0.5,1.3s-0.5-0.2-0.5-0.5c-0.1-0.6-0.1-1.3-0.2-2c-0.4-1.1-1-1.9-3.2-2.2c-1-0.1-7.6-0.3-8.9-0.3c-0.3,0-0.4,0.3-0.4,0.5
	v4.5c0,1.9-0.1,6.6,0,8.2c0.1,3.7,1.9,4.6,7.7,4.6c1.8,0.1,3.6-0.2,5.4-0.7c1.5-0.6,2.1-1.8,2.5-4.1c0.1-0.6,0.3-0.8,0.6-0.8
	s0.5,0.7,0.5,1.3c-0.1,2.1-0.4,4.1-0.8,6.1c-0.4,1.5-0.9,1.5-3.1,1.5c-4.3,0-7.7-0.1-10.5-0.2s-4.9-0.1-6.6-0.1
	c-0.6,0-1.9,0.1-3.3,0.1s-2.8,0.1-3.9,0.1c-0.7,0-1.1-0.2-1.1-0.6s0.2-0.5,0.9-0.5c0.7,0,1.3-0.1,2-0.2c1.2-0.3,1.5-1.3,1.7-2.9
	c0.3-2.4,0.3-6.7,0.3-11.8L369.5,79.5L369.5,79.5z"/>
<path class="st0" d="M405.6,79.5c0-8.4,0-9.9-0.1-11.7c-0.1-1.9-0.6-2.5-2.5-3c-0.8-0.1-1.5-0.2-2.3-0.2c-0.5,0-1-0.2-1-0.6
	s0.5-0.5,1.3-0.5c3,0,6.6,0.1,8.3,0.1c2.4,0,6.9-0.1,9.5-0.1c7.1,0,9.8,2.4,10.7,3.1c1.8,1.8,2.8,4.1,2.8,6.7
	c0,7.8-6.2,13.4-14.4,13.4c-0.6,0-1.2,0-1.7-0.1c-0.4,0-0.7-0.2-0.7-0.5s0.6-0.7,1.9-0.7c3.2,0,7.7-3.3,7.7-8.9
	c0.2-3.1-1.1-6.1-3.4-8.2c-1.6-1.4-3.6-2.1-5.7-2.1c-0.8,0-1.7,0.1-2.5,0.3c-0.4,0.1-0.5,0.4-0.5,1v21.9c0,5.1,0,9.4,0.3,11.8
	c0.2,1.6,0.5,2.6,2.2,2.8c0.8,0.1,2.1,0.2,2.9,0.2c0.6,0,0.9,0.4,0.9,0.5c0,0.4-0.5,0.6-1,0.6c-3.8,0-7.8-0.2-9.4-0.2
	c-1.3,0-4.9,0.2-7.2,0.2c-0.7,0-1.1-0.2-1.1-0.6s0.2-0.5,0.9-0.5c0.7,0,1.3-0.1,2-0.2c1.2-0.3,1.5-1.3,1.7-2.9
	c0.3-2.4,0.3-6.7,0.3-11.8L405.6,79.5L405.6,79.5z"/>
<path class="st0" d="M443.5,91.3c-0.4,0-0.4,0.1-0.5,0.4l-3.1,7.4c-0.5,1.1-0.7,2.2-0.8,3.4c0,1,0.5,1.5,2.3,1.5h0.8
	c0.7,0,0.8,0.3,0.8,0.6c0,0.5-0.4,0.6-0.9,0.6c-1.9,0-4.5-0.2-6.4-0.2c-0.5,0-3.6,0.2-6.7,0.2c-0.7,0-1-0.1-1-0.6s0.2-0.6,0.6-0.6
	s1.2-0.1,1.7-0.1c2.6-0.4,3.5-2.1,4.7-4.8l14.9-34.7c0.6-1.5,1.1-2.2,1.7-2.2c0.8,0,1.1,0.5,1.7,1.7c1.4,3.1,10.9,25.7,14.6,34.1
	c2.2,5,3.8,5.7,4.8,5.9c0.7,0.1,1.5,0.2,2.2,0.2c0.5,0,0.8,0.2,0.8,0.5s-0.4,0.6-2.5,0.6s-6.2,0-10.9-0.1c-1-0.1-1.7-0.1-1.7-0.5
	s0.1-0.5,0.7-0.5c0.5-0.2,0.8-0.7,0.6-1.2c0,0,0-0.1-0.1-0.1l-4.4-11.1c0-0.3-0.3-0.4-0.5-0.4c0,0,0,0,0,0L443.5,91.3z M455.7,88.3
	c0.3,0,0.4-0.1,0.3-0.4l-5.4-14c-0.1-0.2-0.1-0.6-0.3-0.6s-0.3,0.4-0.4,0.6l-5.6,13.9c-0.1,0.3,0,0.4,0.2,0.4L455.7,88.3L455.7,88.3
	z"/>
<path class="st0" d="M482.1,79.5c0-8.4,0-9.9-0.1-11.7c-0.1-1.9-0.6-2.5-2.5-3c-0.8-0.1-1.5-0.2-2.3-0.2c-0.5,0-1-0.2-1-0.6
	s0.5-0.5,1.3-0.5c3,0,6.6,0.1,7.8,0.1c1.9,0,7.1-0.1,8.9-0.1c3.6,0,7.8,0.4,10.8,2.4c2.4,1.8,3.9,4.6,4,7.6c0,4.1-2.4,7.8-7.9,12.2
	c5.1,6.2,9.1,11.2,12.6,14.7c3.2,3.2,5.2,3.5,6.1,3.6c0.4,0.1,0.9,0.1,1.4,0.1c0.3,0,0.6,0.2,0.7,0.5c0,0.5-0.4,0.6-1.1,0.6h-5.5
	c-3.2,0-4.7-0.4-6.2-1.1c-2.5-1.3-4.6-3.8-7.8-8.1c-2.3-3-4.6-6.7-5.4-7.6c-0.3-0.3-0.6-0.4-1-0.4l-5.1-0.1c-0.3,0-0.5,0.1-0.5,0.5
	v0.8c0,5.1,0.1,9.4,0.4,11.8c0.2,1.6,0.5,2.6,2.2,2.9c0.8,0.1,2.1,0.2,2.8,0.2c0.3,0,0.6,0.2,0.7,0.5c0,0.4-0.5,0.6-1.2,0.6
	c-3.3,0-8-0.2-8.9-0.2c-1.1,0-4.7,0.2-7,0.2c-0.7,0-1.1-0.2-1.1-0.6s0.2-0.5,0.9-0.5c0.7,0,1.3-0.1,2-0.2c1.2-0.3,1.5-1.3,1.7-2.9
	c0.3-2.4,0.3-6.7,0.3-11.8v-9.8H482.1z M489.4,83.8c0,0.6,0.1,0.8,0.5,1c1.4,0.4,2.9,0.6,4.4,0.6c2.3,0,3.1-0.2,4-0.9
	c1.7-1.3,3.7-3.7,3.7-8.2c0-7.8-5.3-9.8-8.8-9.8c-1.1,0-2.3,0-3.4,0.2c-0.4,0.1-0.6,0.4-0.5,0.8V83.8z"/>
<path class="st0" d="M531.8,66.8l-8.5,0.2c-3.3,0.1-4.7,0.4-5.6,1.7c-0.4,0.6-0.7,1.2-1,1.9c-0.1,0.5-0.3,0.7-0.6,0.7
	s-0.5-0.4-0.5-0.9c0.3-2.2,0.7-4.5,1.3-6.7c0.1-0.7,0.4-1,0.6-1c0.5,0,1,0.5,2.5,0.6c1.9,0.2,3.8,0.3,5.7,0.3h23.2
	c1.3,0,2.6-0.1,3.9-0.3c0.9-0.1,1.4-0.3,1.5-0.3c0.4,0,0.5,0.4,0.5,1.2c0,1.2-0.1,5.3-0.1,6.7c-0.1,0.5-0.2,0.9-0.5,0.9
	s-0.5-0.3-0.6-1.1l-0.1-0.5c-0.1-1.5-1.6-3.1-6.7-3.2l-7.2-0.1v22.3c0,5.1,0.1,9.4,0.4,11.8c0.2,1.6,0.5,2.6,2.2,2.8
	c1,0.1,1.9,0.2,2.9,0.2c0.6,0,0.9,0.4,0.9,0.5c0,0.4-0.5,0.6-1.1,0.6c-3.7,0-7.6-0.2-9.2-0.2c-1.3,0-5.2,0.2-7.5,0.2
	c-0.7,0-1.1-0.2-1.1-0.6s0.2-0.5,0.9-0.5c0.7,0,1.3-0.1,2-0.2c1.2-0.3,1.5-1.3,1.7-2.9c0.3-2.4,0.3-6.7,0.3-11.8V66.8H531.8z"/>
<path class="st0" d="M566.5,63.7c0.1-0.9,0.6-1.5,1.1-1.5s1,0.3,1.7,1.7l15.3,30.8L600,63.6c0.5-0.9,1-1.4,1.5-1.4s1.1,0.5,1.3,1.7
	l5.2,34.1c0.5,3.5,1,4.9,2.8,5.5c1.1,0.3,2.2,0.5,3.3,0.6c0.5,0,0.9,0.2,0.9,0.5s-0.6,0.6-1.5,0.6c-1.5,0-9.6-0.3-11.8-0.4
	c-1.4-0.1-1.7-0.4-1.7-0.6s0.3-0.5,0.6-0.6s0.5-0.8,0.3-2.4l-3.2-23.9h-0.2l-12.3,24.7c-1.3,2.6-1.6,3.1-2.3,3.1s-1.4-1.1-2.3-2.8
	c-1.4-2.6-5.9-10.9-6.6-12.6c-0.5-1-3.8-8-5.7-11.8h-0.2l-2.7,21.6c-0.1,1-0.2,1.7-0.2,2.6s0.8,1.5,1.7,1.6c0.7,0.2,1.3,0.3,2,0.3
	c0.5,0,0.9,0.3,0.9,0.5c0,0.6-0.5,0.6-1.4,0.6c-2.4,0-5-0.2-6-0.2s-3.8,0.2-5.7,0.2c-0.5,0-1-0.1-1-0.6c0-0.3,0.4-0.5,0.9-0.5
	c0.6,0,1.2,0,1.7-0.1c1.5-0.2,2.1-2.4,2.4-4.2L566.5,63.7z"/>
<path class="st0" d="M624.3,79.5c0-8.4,0-9.9-0.1-11.7c-0.1-1.9-0.6-2.5-2.5-3c-0.8-0.1-1.5-0.2-2.3-0.2c-0.5,0-1-0.2-1-0.6
	s0.5-0.5,1.3-0.5c3,0,6.7,0.1,8.3,0.1c1.8,0,14.5,0.1,15.6,0s1.9-0.3,2.4-0.4c0.3-0.1,0.6-0.2,0.9-0.3c0.4,0,0.4,0.3,0.4,0.5
	c-0.3,1.2-0.4,2.4-0.5,3.6c-0.1,0.5-0.2,3-0.4,3.6c-0.1,0.3-0.2,0.9-0.6,0.9s-0.5-0.3-0.5-0.7c0-0.7-0.1-1.4-0.4-2
	c-0.5-1-0.9-1.7-3.7-2c-1-0.1-7.8-0.3-8.9-0.3c-0.3,0-0.4,0.2-0.4,0.6v13.7c0,0.4,0.1,0.6,0.4,0.6c1.3,0,8.7,0,10-0.1
	c1,0.1,2-0.2,2.7-0.8c0.5-0.4,0.6-0.7,0.9-0.7c0.3,0,0.5,0.3,0.5,0.6c0,0.3-0.1,1.3-0.5,4c-0.1,1.1-0.3,3.3-0.3,3.7
	s-0.1,1.3-0.5,1.3s-0.5-0.2-0.5-0.5c-0.1-0.6-0.1-1.3-0.2-2c-0.4-1.1-1-1.9-3.2-2.2c-1-0.1-7.6-0.3-8.9-0.3c-0.3,0-0.4,0.3-0.4,0.5
	v4.5c0,1.9-0.1,6.6,0,8.2c0.1,3.7,1.9,4.6,7.8,4.6c1.8,0.1,3.6-0.2,5.4-0.7c1.5-0.6,2.1-1.8,2.5-4.1c0.1-0.6,0.3-0.8,0.6-0.8
	s0.5,0.7,0.5,1.3c-0.1,2.1-0.4,4.1-0.8,6.1c-0.4,1.5-0.9,1.5-3.1,1.5c-4.3,0-7.7-0.1-10.5-0.2s-4.9-0.1-6.7-0.1
	c-0.6,0-1.9,0.1-3.3,0.1s-2.8,0.1-3.9,0.1c-0.7,0-1.1-0.2-1.1-0.6s0.2-0.5,0.9-0.5c0.7,0,1.3-0.1,2-0.2c1.2-0.3,1.5-1.3,1.7-2.9
	c0.3-2.4,0.3-6.7,0.3-11.8L624.3,79.5L624.3,79.5z"/>
<path class="st0" d="M664,97.7c0.1,4.3,0.8,5.6,1.9,6c1,0.3,2,0.4,3,0.4c0.6,0,1,0.3,1,0.5c0,0.5-0.5,0.6-1.3,0.6
	c-3.7,0-6.4-0.2-7.4-0.2c-0.5,0-3.3,0.2-6.2,0.2c-0.8,0-1.3-0.1-1.3-0.6s0.4-0.5,0.9-0.5c0.9,0,1.8-0.1,2.6-0.3
	c1.5-0.4,1.7-1.9,1.7-6.7l0.5-32.7c0-1.1,0.4-1.9,1-1.9s1.5,0.8,2.5,1.8c0.7,0.7,9.3,9.5,17.6,17.6c3.9,3.8,11.5,11.7,12.3,12.4h0.3
	l-0.5-24.5c-0.1-3.4-0.5-4.4-1.9-4.8c-1-0.3-2-0.4-3-0.4c-0.7,0-0.9-0.3-0.9-0.6c0-0.5,0.5-0.5,1.5-0.5c3,0,6,0.1,7.3,0.1
	c0.6,0,2.8-0.1,5.6-0.1c0.8,0,1.3,0.1,1.3,0.5c0,0.5-0.4,0.6-1,0.6c-0.6,0-1.2,0-1.7,0.2c-1.5,0.5-2,1.5-2.1,4.6l-0.6,34.8
	c0,1.3-0.5,1.7-0.9,1.7c-0.9-0.1-1.8-0.5-2.4-1.2c-3.5-3.3-10.8-10.1-16.7-15.9c-6.2-6-12.3-12.7-13.4-13.7h-0.2L664,97.7z"/>
<path class="st0" d="M722.7,66.8l-8.5,0.2c-3.3,0.1-4.7,0.4-5.6,1.7c-0.4,0.6-0.7,1.2-1,1.9c-0.1,0.5-0.3,0.7-0.6,0.7
	s-0.5-0.4-0.5-0.9c0.3-2.2,0.7-4.5,1.3-6.7c0.1-0.7,0.4-1,0.6-1c0.5,0,1,0.5,2.5,0.6c1.9,0.2,3.8,0.3,5.7,0.3h23.2
	c1.3,0,2.6-0.1,3.9-0.3c0.9-0.1,1.4-0.3,1.5-0.3c0.4,0,0.5,0.4,0.5,1.2c0,1.2-0.1,5.3-0.1,6.7c-0.1,0.5-0.2,0.9-0.5,0.9
	s-0.5-0.3-0.6-1.1l-0.1-0.5c-0.1-1.5-1.6-3.1-6.8-3.2l-7.2-0.1v22.3c0,5.1,0.1,9.4,0.4,11.8c0.2,1.6,0.5,2.6,2.2,2.8
	c1,0.1,1.9,0.2,2.9,0.2c0.6,0,0.9,0.4,0.9,0.5c0,0.4-0.5,0.6-1.1,0.6c-3.7,0-7.6-0.2-9.2-0.2c-1.3,0-5.2,0.2-7.5,0.2
	c-0.7,0-1.1-0.2-1.1-0.6s0.2-0.5,0.9-0.5c0.7,0,1.3-0.1,2-0.2c1.2-0.3,1.5-1.3,1.7-2.9c0.3-2.4,0.3-6.7,0.3-11.8V66.8H722.7z"/>
<path class="st0" d="M769.4,84.3c0-9.4,6.7-21.6,24-21.6c14.4,0,23.4,8,23.4,20.7s-9.2,22.6-24,22.6
	C776.1,106,769.4,94.1,769.4,84.3z M808.2,85.4c0-12.2-7.4-19.8-16.6-19.8c-6.4,0-13.8,3.4-13.8,17c0,11.4,6.5,20.3,17.3,20.3
	C799.1,103,808.2,101.1,808.2,85.4z"/>
<path class="st0" d="M835.1,89.4c0,5.3,0.1,9.2,0.4,11.6c0.2,1.6,0.5,2.6,2.3,2.9c0.8,0.1,2,0.2,2.8,0.2s1,0.4,1,0.5
	c0,0.4-0.4,0.6-1.3,0.6c-3.7,0-7.7-0.2-9.2-0.2s-5.1,0.2-7.3,0.2c-0.8,0-1.2-0.1-1.2-0.6c0-0.3,0.2-0.5,0.8-0.5c0.7,0,1.3-0.1,2-0.2
	c1.2-0.3,1.5-1.3,1.7-2.9c0.3-2.4,0.3-6.5,0.3-11.8v-9.8c0-8.4,0-9.9-0.1-11.7c-0.1-1.9-0.6-2.6-2.5-3c-0.8-0.1-1.5-0.2-2.3-0.2
	c-0.5,0-1-0.2-1-0.6s0.5-0.5,1.4-0.5c2.9,0,6.6,0.1,8.2,0.1c2.2,0,14.8,0.1,16.2,0c0.8,0,1.6-0.1,2.4-0.3c0.4-0.1,0.5-0.4,0.9-0.4
	c0.2,0,0.4,0.3,0.4,0.5s-0.3,1-0.5,2.5c-0.1,0.6-0.2,3.8-0.3,4.5c-0.1,0.4-0.2,1.1-0.5,1.1s-0.7-0.3-0.7-0.9c0.1-0.7,0-1.4-0.4-2.1
	c-0.5-0.8-1.5-1.6-3.6-1.7l-9.5-0.2c-0.4,0-0.5,0.1-0.5,0.8v13.4c0,0.4,0.1,0.6,0.4,0.6l8-0.1c0.9,0,1.8,0,2.7-0.1
	c0.9,0.1,1.8-0.3,2.4-1c0.4-0.4,0.5-0.6,0.8-0.6c0.2,0,0.4,0.2,0.4,0.6s-0.3,1.8-0.5,3.6c-0.1,1.1-0.2,3.6-0.2,4s-0.1,1.2-0.6,1.2
	c-0.4,0-0.5-0.4-0.5-0.8c0-0.6-0.1-1.2-0.4-1.7c-0.4-1.2-1.5-2-2.7-2c-1.5-0.1-8.2-0.2-9.2-0.2c-0.3,0-0.4,0.1-0.4,0.4L835.1,89.4
	L835.1,89.4z"/>
<path class="st0" d="M887.4,56.4c0.2-1.1,0.5-1.7,1.1-1.7s0.9,0.4,1.7,2L908,93.3l17.7-37.1c0.5-1,0.8-1.5,1.5-1.5s1,0.6,1.2,2
	l5.9,40.2c0.5,4.1,1.3,6,3.2,6.6c1.3,0.4,2.6,0.6,4,0.6c0.5,0,1,0.1,1,0.4c0,0.6-0.8,0.7-1.7,0.7c-1.6,0-10.6-0.2-13.2-0.4
	c-1.5-0.1-1.9-0.4-1.9-0.7s0.3-0.6,0.7-0.7s0.5-1,0.4-2.8L922.7,72h-0.3l-14.1,29.5c-1.5,3.1-1.8,3.7-2.4,3.7s-1.3-1.3-2.3-3.3
	c-1.5-3-6.7-12.9-7.5-14.8c-0.5-1.4-4.5-9.6-6.8-14.4h-0.3l-3.4,25.9c-0.1,1.2-0.2,2-0.2,3.1c0,1.3,0.8,1.8,1.9,2.1
	c0.9,0.2,1.8,0.3,2.7,0.4c0.5,0,1,0.1,1,0.4c0,0.6-0.5,0.7-1.5,0.7c-2.7,0-5.7-0.2-6.8-0.2s-4.4,0.2-6.5,0.2c-0.6,0-1.2-0.1-1.2-0.7
	c0-0.4,0.4-0.4,1-0.4c0.6,0,1.3,0,1.9-0.2c1.8-0.4,2.4-2.9,2.6-5.1L887.4,56.4z"/>
<path class="st0" d="M948.1,79.5c0-8.4,0.1-9.9-0.1-11.7c-0.1-1.9-0.6-2.5-2.5-3c-0.7-0.1-1.4-0.2-2.2-0.2c-0.6,0-1-0.2-1-0.6
	s0.4-0.5,1.3-0.5c3.1,0,6.9,0.1,8.6,0.1c1.5,0,5.3-0.1,7.4-0.1c0.8,0,1.3,0.1,1.3,0.5c0,0.5-0.4,0.6-0.9,0.6c-0.6,0-1.2,0.1-1.7,0.2
	c-1.5,0.3-1.9,1-2.1,3c-0.1,1.7-0.1,3.3-0.1,11.7v7.7c0,8,1.5,11.2,4.4,13.4c4.5,3.2,10.6,2.9,14.8-0.7c3.2-3,3.3-7.8,3.3-13.5v-6.9
	c0-8.4-0.1-9.9-0.1-11.7c-0.1-1.9-0.5-2.5-2.4-3c-0.7-0.1-1.4-0.2-2.1-0.2c-0.6,0-1-0.2-1-0.6s0.4-0.5,1.2-0.5
	c2.9,0,6.7,0.1,6.8,0.1c0.6,0,4.5-0.1,6.7-0.1c0.8,0,1.2,0.1,1.2,0.5c0,0.5-0.4,0.6-1,0.6c-0.6,0-1.2,0.1-1.7,0.2
	c-1.5,0.3-1.9,1-2.1,3c-0.1,1.7-0.1,3.3-0.1,11.7v5.9c0,6.2-0.6,12.7-5.5,16.6c-4,3.4-8.4,3.9-12.1,3.9c-3,0-8.9-0.1-13-3.7
	c-2.9-2.6-5.2-6.7-5.2-14.6L948.1,79.5L948.1,79.5z"/>
<path class="st0" d="M996.8,104.5c-0.9-0.4-1.1-0.6-1.1-1.9c0-3,0.3-6.5,0.4-7.4s0.3-1.5,0.7-1.5s0.5,0.6,0.5,0.9
	c0,1,0.2,1.9,0.5,2.8c1.3,4.1,5.6,5.5,9.1,5.5c4.9,0,7.9-3.1,7.9-7c0-2.4-0.5-4.8-5.6-7.8l-3.3-1.9c-6.8-3.9-8.9-7.7-8.9-12.6
	c0-6.7,6.5-11.1,14.4-11.1c2.7,0,5.5,0.3,8.1,0.9c0.5,0.1,0.8,0.4,0.8,0.7c0,0.7-0.2,2.3-0.2,6.7c0,1.2-0.3,1.7-0.7,1.7
	s-0.5-0.4-0.5-1c-0.1-1.3-0.6-2.6-1.5-3.6c-0.8-1-2.7-2.6-6.4-2.6c-4.1,0-7.8,2.2-7.8,5.9c0,2.5,0.9,4.4,6,7.3l2.4,1.3
	c7.6,4.2,9.8,8.4,9.8,13.4c0,4.1-1.5,7.4-5.7,10.3c-2.7,1.9-6.5,2.3-9.6,2.3C1003,106,999.8,105.6,996.8,104.5z"/>
<path class="st0" d="M1033.7,79.5c0-8.4,0-9.9-0.1-11.7c-0.1-1.9-0.7-2.6-1.9-2.9c-0.7-0.2-1.4-0.3-2.1-0.3c-0.5,0-0.9-0.1-0.9-0.6
	c0-0.4,0.5-0.5,1.4-0.5c2.2,0,6,0.1,7.7,0.1c1.5,0,5.1-0.1,7.4-0.1c0.7,0,1.2,0.1,1.2,0.5c0,0.6-0.4,0.6-0.9,0.6
	c-0.6,0-1.2,0.1-1.7,0.2c-1.6,0.3-2,1-2.2,3c-0.1,1.7-0.1,3.3-0.1,11.7v9.8c0,5.3,0,9.7,0.3,12.1c0.2,1.5,0.5,2.4,2.3,2.6
	c1,0.1,1.9,0.2,2.9,0.2c0.6,0,0.9,0.4,0.9,0.5c0,0.4-0.4,0.6-1.1,0.6c-3.7,0-7.7-0.2-9.2-0.2c-1.3,0-5.2,0.2-7.5,0.2
	c-0.7,0-1.1-0.2-1.1-0.6s0.2-0.5,0.9-0.5c0.7,0,1.3-0.1,2-0.2c1.2-0.3,1.5-1,1.7-2.6c0.3-2.3,0.3-6.7,0.3-12L1033.7,79.5
	L1033.7,79.5z"/>
<path class="st0" d="M1060.4,100c-5.6-4.7-7.1-10.9-7.1-16.3c0-5.7,2.4-11.2,6.7-15.1c4.2-3.7,9.7-5.8,18.1-5.8
	c2.8,0,5.5,0.2,8.3,0.5c2.2,0.4,4,0.7,5.7,0.9c0.6,0.1,0.8,0.4,0.8,0.6c0,0.5-0.1,1.1-0.3,3.1c-0.1,1.8-0.1,4.8-0.2,6
	c-0.1,0.8-0.3,1.4-0.8,1.4s-0.5-0.5-0.5-1.2c-0.1-1.9-0.9-3.7-2.2-5.1c-1.9-1.9-5.7-3.3-11-3.3c-5,0-8.2,0.9-10.8,3.1
	c-4.2,3.6-5.3,8.9-5.3,14.4c0,13.1,10.1,19.3,17.8,19.3c5.1,0,7.8-0.4,10.1-2.9c1-1.1,1.6-2.3,1.9-3.7c0.1-0.8,0.3-1.1,0.7-1.1
	s0.6,0.6,0.6,1c-0.2,2.5-0.6,5-1.3,7.4c-0.1,0.8-0.7,1.4-1.4,1.6c-2.3,0.9-6.7,1.3-10.3,1.3C1072.2,106,1065.6,104.3,1060.4,100z"/>
<path class="st0" d="M157,150.2c-4.7-4.4-4.9-11.7-0.5-16.3c0.1-0.1,0.2-0.2,0.3-0.3c2.1-1.9,4.8-3.1,9.2-3.1c1.4,0,2.8,0.1,4.2,0.3
	c1.1,0.2,2,0.4,2.9,0.4c0.4,0,0.5,0.2,0.5,0.4s-0.1,0.6-0.2,1.6s0,2.6-0.1,3.2c0,0.4-0.1,0.6-0.4,0.6s-0.3-0.3-0.3-0.6
	c0-1-0.4-1.9-1.1-2.6c-1-1-3.3-1.8-5.9-1.8c-2-0.2-4,0.5-5.5,1.8c-2.1,1.9-2.6,4.7-2.6,7.6c0,6.9,5.3,10.4,9.2,10.4
	c2.6,0,4.2-0.3,5.4-1.6c0.5-0.6,0.8-1.2,1-1.9c0.1-0.5,0.2-0.6,0.4-0.6s0.3,0.2,0.3,0.5c-0.1,1.3-0.4,2.6-0.7,3.9
	c-0.2,0.4-0.3,0.6-0.7,0.8c-1.7,0.5-3.5,0.7-5.3,0.6C163,153.4,159.6,152.4,157,150.2z"/>
<path class="st0" d="M176.7,141.9c0-5,3.3-11.4,12-11.4c7.3,0,11.8,4.2,11.8,10.9s-4.6,11.9-12.1,11.9
	C180.1,153.4,176.7,147.1,176.7,141.9z M196.4,142.4c0-6.6-3.7-10.6-8.6-10.6c-3.4,0-7.2,1.8-7.2,9.1c0,6.1,3.4,10.8,8.9,10.8
	C191.7,151.9,196.4,150.9,196.4,142.4z"/>
<path class="st0" d="M210.3,144.4c0,3.7,0,5.7,0.6,6.3c0.5,0.5,1.3,0.6,3.6,0.6c1.5,0,2.6,0,3.4-0.8c0.4-0.5,0.7-1.1,0.7-1.7
	c0-0.3,0.1-0.5,0.4-0.5s0.3,0.2,0.3,0.5c0,1.1-0.2,2.3-0.4,3.4c-0.2,0.6-0.4,0.8-1.8,0.8c-2.1,0-3.6-0.1-4.9-0.1s-2.4-0.1-3.6-0.1
	h-1.6c-0.6,0-1.5,0.1-2,0.1c-0.4,0-0.6-0.1-0.6-0.3s0.1-0.3,0.5-0.3s0.8-0.1,1.1-0.1c0.6-0.1,0.7-0.7,0.8-1.6
	c0.2-2.1,0.2-4.1,0.2-6.2v-5.1c0-4.5,0-5.3-0.1-6.2s-0.3-1.5-1.3-1.6c-0.3-0.1-0.7-0.1-1-0.1c-0.4,0-0.4-0.1-0.4-0.3
	s0.2-0.3,0.6-0.3c1.4,0,3.2,0.1,4,0.1s2.8-0.1,4-0.1c0.4,0,0.6,0.1,0.6,0.3s-0.2,0.3-0.6,0.3c-0.4,0-0.7,0-1.1,0.1
	c-0.8,0.2-1,0.6-1.1,1.6s-0.1,1.7-0.1,6.2v5.1H210.3z"/>
<path class="st0" d="M222.4,139.3c0-4.5,0-5.3-0.1-6.2s-0.3-1.5-1.3-1.6c-0.4-0.1-0.7-0.1-1.1-0.1c-0.4,0-0.4-0.1-0.4-0.3
	s0.2-0.3,0.6-0.3c1.6,0,3.4,0.1,4.3,0.1c0.7,0,2.6-0.1,3.6-0.1c0.4,0,0.6,0.1,0.6,0.3s-0.2,0.3-0.5,0.3c-0.3,0-0.6,0-0.8,0.1
	c-0.8,0.2-1,0.6-1.1,1.6s-0.1,1.7-0.1,6.2v4.1c0,4.2,0.8,6,2.3,7.2c1,0.8,2.3,1.3,3.6,1.2c1.5,0,2.9-0.5,4-1.5
	c1.6-1.6,1.7-4.2,1.7-7.2v-3.6c0-4.5,0-5.3-0.1-6.2s-0.3-1.5-1.3-1.6c-0.4-0.1-0.7-0.1-1.1-0.1c-0.4,0-0.5-0.1-0.5-0.3
	s0.2-0.3,0.6-0.3c1.5,0,3.3,0.1,3.4,0.1c0.4,0,2.2-0.1,3.3-0.1c0.4,0,0.6,0.1,0.6,0.3s-0.2,0.3-0.6,0.3c-0.3,0-0.6,0-0.8,0.1
	c-0.8,0.2-1,0.6-1.1,1.6s-0.1,1.7-0.1,6.2v3.1c0,3.3-0.4,6.6-2.7,8.8c-1.7,1.5-3.9,2.2-6.1,2.1c-1.6,0-4.4-0.1-6.5-2
	c-1.5-1.4-2.6-3.5-2.6-7.8L222.4,139.3L222.4,139.3z"/>
<path class="st0" d="M249.2,131c0.1-0.4,0.3-0.7,0.4-0.7s0.4,0.2,0.8,0.9l7.9,16.5l7.9-16.7c0.3-0.4,0.4-0.7,0.6-0.7
	s0.5,0.3,0.5,0.9l2.6,18c0.3,1.8,0.5,2.6,1.5,2.9c0.6,0.2,1.2,0.3,1.8,0.3c0.3,0,0.5,0,0.5,0.2s-0.4,0.4-0.7,0.4
	c-0.7,0-4.7-0.1-5.9-0.2c-0.6-0.1-0.8-0.2-0.8-0.4s0.1-0.3,0.4-0.4s0.3-0.5,0.2-1.3l-1.7-12.7h-0.1l-6.4,13.2
	c-0.6,1.4-0.8,1.6-1.1,1.6s-0.5-0.6-1-1.5c-0.7-1.4-3-5.8-3.4-6.6c-0.3-0.6-2-4.3-3-6.5h-0.1l-1.6,11.6c-0.1,0.5-0.1,0.9-0.1,1.4
	c0,0.5,0.4,0.8,0.9,0.9c0.4,0.1,0.8,0.1,1.2,0.2c0.3,0,0.5,0.1,0.5,0.2c0,0.3-0.3,0.4-0.7,0.4c-1.2,0-2.6-0.1-3.1-0.1
	s-1.9,0.1-2.9,0.1c-0.3,0-0.6-0.1-0.6-0.4s0.2-0.2,0.5-0.2c0.3,0,0.6,0,0.9-0.1c0.8-0.2,1.1-1.3,1.2-2.3L249.2,131z"/>
<path class="st0" d="M278.5,139.3c0-4.5,0-5.3-0.1-6.2s-0.3-1.5-1.3-1.6c-0.4-0.1-0.7-0.1-1.1-0.1c-0.4,0-0.5-0.1-0.5-0.3
	s0.2-0.3,0.6-0.3c1.5,0,3.4,0.1,4,0.1c1.5,0,2.5-0.1,3.6-0.1c5.3,0,6.2,2.8,6.2,4.4c0,2.4-1.4,3.8-3,5.1c2.4,0.8,5.3,2.9,5.3,6.3
	c0,3.1-2.5,6.4-7.8,6.4c-0.4,0-1.2-0.1-2-0.1c-0.7-0.1-1.5-0.1-2.2-0.1h-1.6c-0.6,0-1.5,0.1-2,0.1c-0.4,0-0.5-0.1-0.5-0.3
	s0.1-0.3,0.5-0.3s0.8-0.1,1.1-0.1c0.5-0.1,0.7-0.7,0.8-1.6c0.2-2.1,0.2-4.1,0.2-6.2v-5.1H278.5z M282,139.9c0,0.3,0.1,0.3,0.2,0.4
	c0.4,0.1,0.9,0.1,1.4,0.1c0.7,0.1,1.5-0.1,2.1-0.6c0.8-0.8,1.3-1.9,1.2-3.1c0-1.9-1.1-4.6-3.6-4.6c-0.3,0-0.7,0-1,0.1
	c-0.2,0.1-0.3,0.3-0.3,0.4L282,139.9L282,139.9z M285.8,142.2c-0.7-0.5-1.6-0.7-2.5-0.7h-1.3c-0.1,0-0.2,0.1-0.2,0.2v6.9
	c0,1.9,0.1,2.5,1,2.8c0.7,0.3,1.4,0.4,2.1,0.4c1.9,0.1,3.5-1.4,3.6-3.3c0-0.1,0-0.3,0-0.4C288.7,145.7,287.7,143.5,285.8,142.2
	L285.8,142.2z"/>
<path class="st0" d="M298.6,139.3c0-4.5,0-5.3-0.1-6.2s-0.4-1.5-1-1.6c-0.4-0.1-0.7-0.1-1.1-0.1c-0.3,0-0.5-0.1-0.5-0.3
	s0.3-0.3,0.7-0.3c1.1,0,2.9,0.1,3.8,0.1c0.7,0,2.5-0.1,3.5-0.1c0.4,0,0.6,0.1,0.6,0.3s-0.2,0.3-0.5,0.3c-0.3,0-0.6,0-0.9,0.1
	c-0.8,0.2-1,0.6-1.1,1.6s-0.1,1.7-0.1,6.2v5.1c0,2.8,0,5.1,0.1,6.4c0.1,0.8,0.3,1.3,1.2,1.5c0.5,0.1,1,0.1,1.5,0.1
	c0.4,0,0.5,0.1,0.5,0.3s-0.3,0.3-0.5,0.3c-1.9,0-3.7-0.1-4.6-0.1c-0.6,0-2.5,0.1-3.6,0.1c-0.4,0-0.5-0.1-0.5-0.3s0.1-0.3,0.5-0.3
	s0.8-0.1,1.1-0.1c0.5-0.1,0.7-0.6,0.8-1.5c0.2-2.1,0.2-4.3,0.2-6.4V139.3z"/>
<path class="st0" d="M312.9,145.3c-0.2,0-0.2,0.1-0.3,0.3l-1.5,4.2c-0.2,0.6-0.4,1.2-0.5,1.8c0,0.6,0.3,0.9,1.2,0.9h0.5
	c0.4,0,0.5,0.1,0.5,0.3s-0.2,0.3-0.5,0.3c-0.9,0-2.2-0.1-3.1-0.1c-0.4,0-1.9,0.1-3.5,0.1c-0.4,0-0.5-0.1-0.5-0.3s0.1-0.3,0.4-0.3
	c0.3,0,0.6,0,0.9-0.1c1.4-0.2,1.9-1.2,2.5-2.6l7.3-18.3c0.4-0.8,0.5-1.2,0.8-1.2s0.5,0.3,0.7,0.9c0.7,1.6,5.4,13.5,7.2,17.9
	c1.1,2.6,1.9,3,2.5,3.2c0.4,0.1,0.8,0.1,1.2,0.1c0.3,0,0.4,0,0.4,0.3s-0.3,0.3-1.4,0.3s-3.2,0-5.6-0.1c-0.5,0-0.9,0-0.9-0.3
	s0.1-0.3,0.4-0.3c0.2-0.1,0.3-0.4,0.3-0.6l-2.4-6.2c0-0.1-0.2-0.2-0.3-0.2L312.9,145.3z M318.8,143.9c0.2,0,0.2-0.1,0.2-0.2
	l-2.6-7.2c0-0.1-0.1-0.3-0.2-0.3s-0.2,0.2-0.2,0.3l-2.6,7.2c0,0.1,0,0.2,0.1,0.2H318.8z"/>
<path class="st0" d="M339.7,139.3c0-4.5,0-5.3-0.1-6.2s-0.3-1.5-1.3-1.6c-0.4-0.1-0.7-0.1-1.1-0.1c-0.4,0-0.5-0.1-0.5-0.3
	s0.2-0.3,0.6-0.3c1.5,0,3.4,0.1,4.3,0.1c0.7,0,2.5-0.1,3.5-0.1c0.5,0,0.6,0.1,0.6,0.3s-0.2,0.3-0.5,0.3c-0.3,0-0.6,0-0.8,0.1
	c-0.8,0.2-1,0.6-1.1,1.6s-0.1,1.7-0.1,6.2v4.1c0,4.2,0.8,6,2.3,7.2c1,0.8,2.3,1.3,3.6,1.2c1.5,0,2.9-0.5,4-1.5
	c1.6-1.6,1.7-4.2,1.7-7.2v-3.6c0-4.5,0-5.3-0.1-6.2s-0.3-1.5-1.3-1.6c-0.4-0.1-0.7-0.1-1.1-0.1c-0.4,0-0.5-0.1-0.5-0.3
	s0.2-0.3,0.6-0.3c1.5,0,3.3,0.1,3.4,0.1c0.4,0,2.2-0.1,3.3-0.1c0.4,0,0.6,0.1,0.6,0.3s-0.2,0.3-0.5,0.3c-0.3,0-0.6,0-0.8,0.1
	c-0.8,0.2-1,0.6-1.1,1.6s-0.1,1.7-0.1,6.2v3.1c0,3.3-0.4,6.6-2.7,8.8c-1.7,1.5-3.9,2.2-6.1,2.1c-1.5,0-4.4-0.1-6.5-2
	c-1.5-1.4-2.5-3.5-2.5-7.8L339.7,139.3z"/>
<path class="st0" d="M367.4,149c0.1,2.3,0.5,3,1,3.3c0.5,0.1,1,0.2,1.5,0.2c0.4,0,0.5,0.1,0.5,0.3s-0.3,0.3-0.6,0.3
	c-1.9,0-3.1-0.1-3.6-0.1c-0.3,0-1.6,0.1-3.2,0.1c-0.4,0-0.6,0-0.6-0.3s0.2-0.3,0.5-0.3c0.4,0,0.9,0,1.3-0.2c0.7-0.3,0.9-1.1,0.9-3.6
	l0.3-17.3c0-0.6,0.1-1,0.4-1s0.5,0.4,1.1,0.9c0.4,0.4,4.8,5.1,9,9.4c2,2,5.9,6.2,6.4,6.6h0.2l-0.3-13.1c0-1.8-0.3-2.4-1-2.6
	c-0.5-0.1-1-0.2-1.5-0.2c-0.4,0-0.5-0.1-0.5-0.3s0.4-0.3,0.7-0.3c1.5,0,2.9,0.1,3.5,0.1c0.4,0,1.5-0.1,2.8-0.1c0.4,0,0.6,0,0.6,0.3
	s-0.2,0.3-0.5,0.3c-0.3,0-0.6,0-0.9,0.1c-0.8,0.3-1.1,0.8-1.1,2.5l-0.4,18.4c0,0.6-0.1,0.9-0.4,0.9s-0.6-0.4-1-0.6
	c-1.8-1.7-5.6-5.6-8.6-8.6c-3.2-3.2-6.4-6.8-6.9-7.4h-0.1L367.4,149z"/>
<path class="st0" d="M393.3,139.3c0-4.5,0-5.3-0.1-6.2s-0.4-1.5-1-1.6c-0.4-0.1-0.7-0.1-1.1-0.1c-0.3,0-0.5-0.1-0.5-0.3
	s0.3-0.3,0.7-0.3c1.1,0,2.9,0.1,3.8,0.1c0.7,0,2.5-0.1,3.5-0.1c0.4,0,0.6,0.1,0.6,0.3s-0.2,0.3-0.5,0.3c-0.3,0-0.6,0-0.9,0.1
	c-0.8,0.2-1,0.6-1.1,1.6s-0.1,1.7-0.1,6.2v5.1c0,2.8,0,5.1,0.1,6.4c0.1,0.8,0.3,1.3,1.2,1.5c0.5,0.1,1,0.1,1.5,0.1
	c0.4,0,0.5,0.1,0.5,0.3s-0.3,0.3-0.5,0.3c-1.9,0-3.7-0.1-4.6-0.1c-0.6,0-2.5,0.1-3.6,0.1c-0.4,0-0.5-0.1-0.5-0.3s0.1-0.3,0.5-0.3
	s0.8-0.1,1.1-0.1c0.5-0.1,0.7-0.6,0.8-1.5c0.2-2.1,0.2-4.3,0.2-6.4V139.3z"/>
<path class="st0" d="M403.9,133.8c-0.6-1.6-1.2-1.9-2.2-2.2c-0.4-0.1-0.7-0.1-1.1-0.1c-0.3,0-0.4-0.1-0.4-0.3s0.4-0.3,0.7-0.3
	c1.5,0,3.2,0.1,4.2,0.1c0.7,0,2.1-0.1,3.5-0.1c0.4,0,0.6,0.1,0.6,0.3s-0.2,0.3-0.5,0.3c-0.5,0-0.9,0-1.1,0.2
	c-0.2,0.2-0.3,0.4-0.3,0.6c0.1,0.8,0.4,1.5,0.6,2.3l5,13.2h0.1c1.3-3.2,5-12.6,5.7-14.5c0.2-0.3,0.3-0.7,0.3-1.1
	c0-0.3-0.1-0.5-0.4-0.6c-0.4-0.1-0.8-0.2-1.2-0.2c-0.3,0-0.5,0-0.5-0.3s0.3-0.3,0.8-0.3c1.5,0,2.6,0.1,3.1,0.1s1.8-0.1,2.7-0.1
	c0.4,0,0.6,0.1,0.6,0.3s-0.2,0.3-0.5,0.3c-0.5,0-1,0.1-1.5,0.4c-0.4,0.3-0.8,0.7-1.6,2.6c-1.1,2.7-1.9,4.3-3.5,7.9
	c-1.8,4.3-3.3,7.5-3.9,8.9c-0.7,1.7-0.9,2.2-1.4,2.2s-0.5-0.4-1.1-1.8L403.9,133.8z"/>
<path class="st0" d="M427.7,139.3c0-4.5,0-5.3-0.1-6.2s-0.3-1.5-1.3-1.6c-0.4-0.1-0.7-0.1-1.1-0.1c-0.4,0-0.5-0.1-0.5-0.3
	s0.2-0.3,0.6-0.3h2.4c0.7,0,1.5,0.1,1.8,0.1h7.3c0.5-0.1,1-0.1,1.3-0.2c0.2,0,0.3-0.1,0.5-0.1c0.2,0,0.2,0.1,0.2,0.3
	c-0.1,0.6-0.2,1.3-0.3,1.9c0,0.6-0.1,1.3-0.2,1.9c0,0.2-0.1,0.4-0.3,0.4s-0.3-0.2-0.3-0.4c0-0.4,0-0.7-0.2-1.1
	c-0.2-0.5-0.5-0.9-1.9-1.1c-0.5-0.1-3.6-0.1-4.1-0.1c-0.2,0-0.2,0.1-0.2,0.3v7.4c0,0.2,0,0.4,0.2,0.4c0.6,0,4,0,4.6-0.1
	c0.5,0,1-0.2,1.4-0.5c0.2-0.3,0.4-0.4,0.5-0.4s0.2,0.1,0.2,0.3s-0.1,0.6-0.3,2.1c0,0.5-0.1,1.7-0.1,1.9s0,0.5-0.3,0.5
	c-0.1,0-0.3-0.1-0.3-0.2c0,0,0,0,0-0.1c0-0.4,0-0.7-0.1-1.1c-0.2-0.6-0.5-1-1.6-1.1c-0.5-0.1-3.5-0.1-4.1-0.1
	c-0.2,0-0.2,0.1-0.2,0.3v6.8c0.1,2,0.5,2.5,3.5,2.5c0.9,0.1,1.9-0.1,2.7-0.4c0.8-0.5,1.3-1.3,1.3-2.2c0.1-0.4,0.1-0.5,0.4-0.5
	s0.3,0.3,0.3,0.6c0,0.6-0.3,2.6-0.4,3.3s-0.5,0.7-1.5,0.7c-2.2,0-3.8-0.1-5-0.1s-2.2-0.1-3-0.1h-1.6c-0.6,0-1.5,0.1-2,0.1
	c-0.4,0-0.5-0.1-0.5-0.3s0.1-0.3,0.5-0.3s0.8-0.1,1.1-0.1c0.5-0.1,0.7-0.7,0.8-1.6c0.2-2.1,0.2-4.1,0.2-6.2v-5.1L427.7,139.3z"/>
<path class="st0" d="M446.1,139.3c0-4.5,0-5.3-0.1-6.2s-0.3-1.5-1.3-1.6c-0.4-0.1-0.7-0.1-1.1-0.1c-0.4,0-0.5-0.1-0.5-0.3
	s0.2-0.3,0.6-0.3c1.5,0,3.4,0.1,4,0.1c1,0,3.2-0.1,4.1-0.1c1.9-0.1,3.8,0.3,5.4,1.3c1.3,0.9,2,2.4,2,4c0,2.2-0.9,4.1-3.8,6.6
	c2.6,3.3,4.7,5.8,6.3,7.7c0.8,1,2,1.7,3.3,2c0.3,0.1,0.5,0.1,0.8,0.1c0.3,0,0.4,0.1,0.4,0.3s-0.2,0.3-0.5,0.3h-2.7
	c-1.1,0.1-2.1-0.1-3.1-0.6c-1.3-0.6-2.4-2-4-4.3c-1.2-1.6-2.5-3.6-2.9-4c-0.1-0.1-0.3-0.2-0.5-0.2l-2.5-0.1c-0.2,0-0.3,0.1-0.3,0.3
	v0.4c-0.1,2.1,0,4.2,0.2,6.3c0.1,0.8,0.3,1.5,1.1,1.6c0.5,0.1,1,0.1,1.5,0.1c0.3,0,0.4,0.1,0.4,0.3s-0.2,0.3-0.5,0.3
	c-1.7,0-3.8-0.1-4.3-0.1s-2.4,0.1-3.5,0.1c-0.4,0-0.5-0.1-0.5-0.3s0.1-0.3,0.5-0.3s0.8-0.1,1.1-0.1c0.5-0.1,0.7-0.7,0.8-1.6
	c0.2-2.1,0.2-4.1,0.2-6.2v-5.3L446.1,139.3z M449.5,141.6c0,0.4,0.1,0.5,0.3,0.6c0.7,0.2,1.4,0.3,2.2,0.3c0.7,0.1,1.5-0.1,2.1-0.4
	c0.9-0.6,1.7-2,1.7-4.4c0-4.1-2.7-5.4-4.5-5.4c-0.5,0-1,0-1.5,0.1c-0.2,0.1-0.3,0.2-0.3,0.4L449.5,141.6L449.5,141.6z"/>
<path class="st0" d="M466.1,152.5c-0.5-0.2-0.5-0.4-0.5-1c0-1.3,0-2.6,0.2-3.8c0-0.4,0.1-0.7,0.4-0.7s0.3,0.3,0.3,0.4
	c0,0.5,0.1,1,0.3,1.5c0.5,1.9,2.3,3.1,4.2,2.9c2.6,0,3.9-1.8,3.9-3.3s-0.5-2.7-2.8-4.6l-1.4-1.1c-3.2-2.6-4.3-4.6-4.3-6.9
	c0-3.2,2.6-5.5,6.7-5.5c1.3,0,2.6,0.1,3.9,0.5c0.3,0.1,0.4,0.2,0.4,0.4c0,0.4-0.1,1.2-0.1,3.5c0,0.6-0.1,0.9-0.4,0.9
	s-0.3-0.2-0.3-0.6c-0.1-0.7-0.3-1.4-0.7-1.9c-0.8-1-1.9-1.5-3.2-1.5c-2.2,0-3.5,1.3-3.5,3c0,1.4,0.6,2.4,3.1,4.2l0.8,0.6
	c3.5,2.6,4.7,4.6,4.7,7.5c0,2.1-1,4-2.7,5.1c-1.4,0.8-3,1.2-4.6,1.2C469,153.4,467.5,153.2,466.1,152.5z"/>
<path class="st0" d="M484.6,139.3c0-4.5,0-5.3-0.1-6.2s-0.4-1.5-1-1.6c-0.4-0.1-0.7-0.1-1.1-0.1c-0.3,0-0.5-0.1-0.5-0.3
	s0.3-0.3,0.7-0.3c1.1,0,2.9,0.1,3.8,0.1c0.7,0,2.5-0.1,3.5-0.1c0.4,0,0.6,0.1,0.6,0.3s-0.2,0.3-0.5,0.3c-0.3,0-0.6,0-0.9,0.1
	c-0.8,0.2-1,0.6-1.1,1.6s-0.1,1.7-0.1,6.2v5.1c0,2.8,0,5.1,0.1,6.4c0.1,0.8,0.3,1.3,1.2,1.5c0.5,0.1,1,0.1,1.5,0.1
	c0.4,0,0.5,0.1,0.5,0.3s-0.3,0.3-0.5,0.3c-1.9,0-3.7-0.1-4.5-0.1c-0.6,0-2.5,0.1-3.6,0.1c-0.4,0-0.5-0.1-0.5-0.3s0.1-0.3,0.5-0.3
	s0.8-0.1,1.1-0.1c0.5-0.1,0.7-0.6,0.8-1.5c0.2-2.1,0.2-4.3,0.2-6.4L484.6,139.3L484.6,139.3z"/>
<path class="st0" d="M501.7,132.5l-4.4,0.1c-1.7,0.1-2.4,0.2-2.8,0.8c-0.2,0.3-0.4,0.6-0.5,1c-0.1,0.3-0.2,0.4-0.4,0.4
	s-0.3-0.2-0.3-0.5c0.2-1.1,0.4-2.3,0.6-3.4c0.1-0.4,0.2-0.6,0.4-0.6c0.4,0.1,0.8,0.3,1.3,0.4c1,0.1,1.9,0.2,2.9,0.2h11.6
	c0.7,0,1.3-0.1,2-0.2c0.3-0.1,0.5-0.1,0.8-0.2c0.2,0,0.3,0.2,0.3,0.6c0,0.6-0.1,2.6-0.1,3.4c0,0.3-0.1,0.4-0.3,0.4s-0.3-0.2-0.4-0.6
	v-0.4c-0.1-0.7-0.8-1.6-3.5-1.6l-3.6-0.1v11.9c-0.1,2.1,0,4.2,0.2,6.3c0.1,0.8,0.3,1.5,1.1,1.6c0.5,0.1,1,0.1,1.5,0.1
	c0.4,0,0.5,0.1,0.5,0.3s-0.3,0.3-0.5,0.3c-1.9,0-3.7-0.1-4.5-0.1c-0.6,0-2.5,0.1-3.6,0.1c-0.4,0-0.5-0.1-0.5-0.3s0.1-0.3,0.5-0.3
	s0.8-0.1,1.1-0.1c0.5-0.1,0.7-0.7,0.8-1.6c0.2-2.1,0.2-4.1,0.2-6.2v-11.8H501.7z"/>
<path class="st0" d="M522,145.3c0-1.1-0.2-2.1-0.6-3.1c-0.2-0.5-4.1-6.9-5.1-8.4c-0.5-0.8-1.2-1.6-2-2.1c-0.4-0.2-0.8-0.3-1.2-0.4
	c-0.3,0-0.5-0.1-0.5-0.3s0.2-0.3,0.5-0.3c0.5,0,2.7,0.1,3.7,0.1c0.6,0,1.8-0.1,3.1-0.1c0.3,0,0.5,0.1,0.5,0.3s-0.2,0.2-0.6,0.4
	c-0.2,0.1-0.4,0.3-0.4,0.5c0.1,0.3,0.2,0.7,0.4,1c0.4,0.9,4.5,7.9,4.9,8.7c0.3-0.7,4-7.1,4.4-8c0.2-0.5,0.3-1,0.4-1.6
	c0-0.4-0.2-0.7-0.6-0.7c0,0,0,0,0,0c-0.3-0.1-0.5-0.1-0.5-0.3s0.2-0.3,0.5-0.3c1,0,1.9,0.1,2.7,0.1c0.6,0,2.6-0.1,3.1-0.1
	c0.4,0,0.5,0.1,0.5,0.3s-0.3,0.3-0.5,0.3c-0.4,0-0.9,0.1-1.3,0.4c-0.6,0.3-0.9,0.6-1.5,1.5c-2,3-3.9,6.1-5.6,9.3
	c-0.4,0.9-0.5,1.9-0.5,2.9v2.4c0,0.4,0,1.7,0.1,2.9c0.1,0.8,0.4,1.5,1.2,1.6c0.5,0.1,1,0.1,1.5,0.1c0.4,0,0.5,0.1,0.5,0.3
	s-0.3,0.3-0.6,0.3c-1.8,0-3.7-0.1-4.5-0.1s-2.5,0.1-3.6,0.1c-0.4,0-0.6-0.1-0.6-0.3s0.2-0.3,0.5-0.3s0.7-0.1,1-0.1
	c0.5-0.1,0.8-0.7,0.9-1.6c0.1-1.2,0.1-2.5,0.1-2.9L522,145.3L522,145.3z"/>
<path class="st0" d="M547,139.3c0-4.5,0-5.3-0.1-6.2s-0.4-1.5-1-1.6c-0.4-0.1-0.7-0.1-1.1-0.1c-0.3,0-0.5-0.1-0.5-0.3
	s0.3-0.3,0.7-0.3c1.1,0,2.9,0.1,3.8,0.1c0.7,0,2.5-0.1,3.5-0.1c0.4,0,0.6,0.1,0.6,0.3s-0.2,0.3-0.5,0.3c-0.3,0-0.6,0-0.9,0.1
	c-0.8,0.2-1,0.6-1.1,1.6s-0.1,1.7-0.1,6.2v5.1c0,2.8,0,5.1,0.1,6.4c0.1,0.8,0.3,1.3,1.2,1.5c0.5,0.1,1,0.1,1.5,0.1
	c0.4,0,0.5,0.1,0.5,0.3s-0.3,0.3-0.5,0.3c-1.9,0-3.7-0.1-4.6-0.1c-0.6,0-2.5,0.1-3.6,0.1c-0.4,0-0.5-0.1-0.5-0.3s0.1-0.3,0.5-0.3
	s0.8-0.1,1.1-0.1c0.5-0.1,0.7-0.6,0.8-1.5c0.2-2.1,0.2-4.3,0.2-6.4V139.3z"/>
<path class="st0" d="M561.8,149c0.1,2.3,0.5,3,1,3.3c0.5,0.1,1,0.2,1.5,0.2c0.4,0,0.5,0.1,0.5,0.3s-0.3,0.3-0.6,0.3
	c-1.9,0-3.1-0.1-3.6-0.1c-0.3,0-1.6,0.1-3.2,0.1c-0.4,0-0.6,0-0.6-0.3s0.2-0.3,0.5-0.3c0.4,0,0.9,0,1.3-0.2c0.7-0.3,0.9-1.1,0.9-3.6
	l0.3-17.3c0-0.6,0.1-1,0.4-1s0.5,0.4,1.1,0.9c0.4,0.4,4.8,5.1,9,9.4c2,2,5.9,6.2,6.4,6.6h0.2l-0.3-13.1c0-1.8-0.3-2.4-1-2.6
	c-0.5-0.1-1-0.2-1.5-0.2c-0.4,0-0.5-0.1-0.5-0.3s0.4-0.3,0.7-0.3c1.5,0,2.9,0.1,3.6,0.1c0.4,0,1.5-0.1,2.8-0.1c0.4,0,0.6,0,0.6,0.3
	s-0.2,0.3-0.5,0.3c-0.3,0-0.6,0-0.9,0.1c-0.8,0.3-1.1,0.8-1.1,2.5l-0.4,18.4c0,0.6-0.1,0.9-0.4,0.9s-0.6-0.4-1-0.6
	c-1.8-1.7-5.6-5.6-8.6-8.6c-3.2-3.2-6.4-6.8-6.9-7.4h-0.1L561.8,149z"/>
<path class="st0" d="M600.4,132.5l-4.4,0.1c-1.7,0.1-2.4,0.2-2.8,0.8c-0.2,0.3-0.4,0.6-0.5,1c-0.1,0.3-0.2,0.4-0.4,0.4
	s-0.3-0.2-0.3-0.5c0.2-1.1,0.4-2.3,0.6-3.4c0.1-0.4,0.2-0.6,0.4-0.6s0.5,0.3,1.3,0.4c1,0.1,1.9,0.2,2.9,0.2h11.6
	c0.7,0,1.3-0.1,2-0.2c0.3-0.1,0.5-0.1,0.8-0.2c0.2,0,0.3,0.2,0.3,0.6c0,0.6-0.1,2.6-0.1,3.4c0,0.3-0.1,0.4-0.3,0.4s-0.3-0.2-0.4-0.6
	v-0.4c-0.1-0.7-0.8-1.6-3.5-1.6l-3.6-0.1v11.9c-0.1,2.1,0,4.2,0.2,6.3c0.1,0.8,0.3,1.5,1.1,1.6c0.5,0.1,1,0.1,1.5,0.1
	c0.4,0,0.5,0.1,0.5,0.3s-0.3,0.3-0.5,0.3c-1.9,0-3.7-0.1-4.6-0.1c-0.6,0-2.5,0.1-3.6,0.1c-0.4,0-0.5-0.1-0.5-0.3s0.1-0.3,0.5-0.3
	s0.8-0.1,1.1-0.1c0.5-0.1,0.7-0.7,0.8-1.6c0.2-2.1,0.2-4.1,0.2-6.2v-11.8H600.4z"/>
<path class="st0" d="M632.2,140.1c0.1,0,0.2-0.1,0.2-0.2v-0.6c0-4.5,0-5.3-0.1-6.2s-0.3-1.5-1.3-1.6c-0.4-0.1-0.7-0.1-1.1-0.1
	c-0.4,0-0.5-0.1-0.5-0.3s0.2-0.3,0.6-0.3c1.5,0,3.4,0.1,4.2,0.1s2.5-0.1,3.7-0.1c0.4,0,0.6,0.1,0.6,0.3s-0.2,0.3-0.5,0.3
	c-0.3,0-0.6,0-0.8,0.1c-0.8,0.2-1,0.6-1.1,1.6s-0.1,1.7-0.1,6.2v5.1c-0.1,2.1,0,4.2,0.2,6.3c0.1,0.8,0.3,1.5,1.1,1.6
	c0.5,0.1,1,0.1,1.5,0.1c0.4,0,0.5,0.1,0.5,0.3s-0.3,0.3-0.5,0.3c-1.9,0-3.7-0.1-4.5-0.1c-0.6,0-2.5,0.1-3.6,0.1
	c-0.4,0-0.6-0.1-0.6-0.3s0.1-0.3,0.5-0.3s0.8-0.1,1.1-0.1c0.5-0.1,0.7-0.7,0.8-1.6c0.2-2.1,0.2-4.1,0.2-6.2v-2.6
	c0-0.1-0.1-0.2-0.2-0.2h-11.1c-0.1,0-0.2,0-0.2,0.2v2.6c-0.1,2.1,0,4.2,0.2,6.3c0.1,0.8,0.3,1.5,1.1,1.6c0.5,0.1,1,0.1,1.5,0.1
	c0.4,0,0.5,0.1,0.5,0.3s-0.3,0.3-0.5,0.3c-1.9,0-3.7-0.1-4.5-0.1c-0.6,0-2.5,0.1-3.7,0.1c-0.4,0-0.5-0.1-0.5-0.3s0.1-0.3,0.5-0.3
	s0.8-0.1,1.1-0.1c0.5-0.1,0.7-0.7,0.8-1.6c0.2-2.1,0.2-4.1,0.2-6.2v-5.1c0-4.5,0-5.3-0.1-6.2s-0.3-1.5-1.3-1.6
	c-0.4-0.1-0.7-0.1-1.1-0.1c-0.4,0-0.5-0.1-0.5-0.3s0.2-0.3,0.6-0.3c1.5,0,3.4,0.1,4.2,0.1s2.5-0.1,3.6-0.1c0.4,0,0.6,0.1,0.6,0.3
	s-0.2,0.3-0.5,0.3c-0.3,0-0.6,0-0.8,0.1c-0.8,0.2-1,0.6-1.1,1.6s-0.1,1.7-0.1,6.2v0.7c0,0.2,0.1,0.2,0.2,0.2L632.2,140.1z"/>
<path class="st0" d="M645.6,139.3c0-4.5,0-5.3-0.1-6.2s-0.3-1.5-1.3-1.6c-0.4-0.1-0.7-0.1-1.1-0.1c-0.4,0-0.5-0.1-0.5-0.3
	s0.2-0.3,0.6-0.3h2.4c0.7,0,1.5,0.1,1.8,0.1h7.3c0.5-0.1,1-0.1,1.3-0.2c0.2,0,0.3-0.1,0.5-0.1c0.1,0,0.2,0.1,0.2,0.3
	c-0.1,0.6-0.2,1.3-0.3,1.9c0,0.6-0.1,1.3-0.2,1.9c0,0.2-0.1,0.4-0.3,0.4s-0.3-0.2-0.3-0.4c0-0.4,0-0.7-0.2-1.1
	c-0.2-0.5-0.5-0.9-1.9-1.1c-0.5-0.1-3.6-0.1-4.1-0.1c-0.2,0-0.2,0.1-0.2,0.3v7.4c0,0.2,0,0.4,0.2,0.4c0.6,0,4,0,4.6-0.1
	c0.5,0,1-0.2,1.4-0.5c0.2-0.3,0.4-0.4,0.5-0.4s0.2,0.1,0.2,0.3s-0.1,0.6-0.3,2.1c0,0.5-0.1,1.7-0.1,1.9s0,0.5-0.3,0.5
	c-0.1,0-0.3-0.1-0.3-0.2c0,0,0,0,0-0.1c0-0.4,0-0.7-0.1-1.1c-0.2-0.6-0.5-1-1.6-1.1c-0.5-0.1-3.5-0.1-4.1-0.1
	c-0.2,0-0.2,0.1-0.2,0.3v6.8c0.1,2,0.5,2.5,3.5,2.5c0.9,0.1,1.9-0.1,2.7-0.4c0.8-0.5,1.3-1.3,1.3-2.2c0.1-0.4,0.1-0.5,0.4-0.5
	s0.3,0.3,0.3,0.6c0,0.6-0.3,2.6-0.4,3.3s-0.5,0.7-1.5,0.7c-2.2,0-3.8-0.1-5-0.1s-2.2-0.1-3-0.1h-1.6c-0.6,0-1.5,0.1-2,0.1
	c-0.4,0-0.5-0.1-0.5-0.3s0.1-0.3,0.5-0.3s0.8-0.1,1.1-0.1c0.5-0.1,0.7-0.7,0.8-1.6c0.2-2.1,0.2-4.1,0.2-6.2v-5.1L645.6,139.3z"/>
<path class="st0" d="M673.2,150.2c-4.7-4.4-4.9-11.7-0.5-16.3c0.1-0.1,0.2-0.2,0.2-0.2c2.1-1.9,4.8-3.1,9.2-3.1
	c1.4,0,2.8,0.1,4.2,0.3c1.1,0.2,2,0.4,2.9,0.4c0.4,0,0.5,0.2,0.5,0.4s-0.1,0.6-0.2,1.6s0,2.6-0.1,3.2c0,0.4-0.1,0.6-0.4,0.6
	s-0.3-0.3-0.3-0.6c0-1-0.4-1.9-1.1-2.6c-1-1-3.3-1.8-5.9-1.8c-2-0.1-4,0.5-5.5,1.8c-2.1,1.9-2.6,4.7-2.6,7.6
	c0,6.9,5.3,10.4,9.2,10.4c2.5,0,4.2-0.3,5.4-1.6c0.5-0.6,0.8-1.2,1-1.9c0.1-0.5,0.2-0.6,0.4-0.6s0.3,0.2,0.3,0.5
	c-0.1,1.3-0.3,2.6-0.6,3.9c-0.1,0.4-0.4,0.7-0.7,0.8c-1.7,0.5-3.5,0.7-5.3,0.6C679.2,153.4,675.8,152.4,673.2,150.2z"/>
<path class="st0" d="M696.2,139.3c0-4.5,0-5.3-0.1-6.2s-0.4-1.5-1-1.6c-0.4-0.1-0.7-0.1-1.1-0.1c-0.3,0-0.5-0.1-0.5-0.3
	s0.3-0.3,0.7-0.3c1.1,0,2.9,0.1,3.8,0.1c0.7,0,2.5-0.1,3.6-0.1c0.4,0,0.6,0.1,0.6,0.3s-0.2,0.3-0.5,0.3c-0.3,0-0.6,0-0.9,0.1
	c-0.8,0.2-1,0.6-1.1,1.6s-0.1,1.7-0.1,6.2v5.1c0,2.8,0,5.1,0.1,6.4c0.1,0.8,0.3,1.3,1.2,1.5c0.5,0.1,1,0.1,1.5,0.1
	c0.4,0,0.5,0.1,0.5,0.3s-0.3,0.3-0.5,0.3c-1.9,0-3.7-0.1-4.6-0.1c-0.6,0-2.5,0.1-3.6,0.1c-0.4,0-0.5-0.1-0.5-0.3s0.1-0.3,0.5-0.3
	s0.8-0.1,1.1-0.1c0.5-0.1,0.7-0.6,0.8-1.5c0.2-2.1,0.2-4.3,0.2-6.4V139.3z"/>
<path class="st0" d="M713.2,132.5l-4.4,0.1c-1.7,0.1-2.4,0.2-2.8,0.8c-0.2,0.3-0.4,0.6-0.5,1c-0.1,0.3-0.2,0.4-0.4,0.4
	s-0.3-0.2-0.3-0.5c0.1-1.1,0.4-2.3,0.6-3.4c0.1-0.4,0.2-0.6,0.4-0.6s0.5,0.3,1.3,0.4c1,0.1,1.9,0.2,2.9,0.2h11.6
	c0.7,0,1.3-0.1,2-0.2c0.3-0.1,0.5-0.1,0.8-0.2c0.2,0,0.3,0.2,0.3,0.6c0,0.6-0.1,2.6-0.1,3.4c0,0.3-0.1,0.4-0.3,0.4s-0.3-0.2-0.4-0.6
	v-0.4c-0.1-0.7-0.8-1.6-3.5-1.6l-3.7-0.1v11.9c-0.1,2.1,0,4.2,0.2,6.3c0.1,0.8,0.3,1.5,1.1,1.6c0.5,0.1,1,0.1,1.5,0.1
	c0.4,0,0.5,0.1,0.5,0.3s-0.3,0.3-0.5,0.3c-1.9,0-3.7-0.1-4.6-0.1c-0.6,0-2.5,0.1-3.6,0.1c-0.4,0-0.5-0.1-0.5-0.3s0.1-0.3,0.5-0.3
	s0.8-0.1,1.1-0.1c0.5-0.1,0.7-0.7,0.8-1.6c0.2-2.1,0.2-4.1,0.2-6.2v-11.8H713.2z"/>
<path class="st0" d="M733.4,145.3c0-1.1-0.2-2.1-0.6-3.1c-0.2-0.5-4.1-6.9-5.1-8.4c-0.5-0.8-1.2-1.6-2-2.1c-0.4-0.2-0.8-0.3-1.2-0.4
	c-0.3,0-0.5-0.1-0.5-0.3s0.2-0.3,0.5-0.3c0.5,0,2.7,0.1,3.6,0.1c0.6,0,1.8-0.1,3.1-0.1c0.3,0,0.5,0.1,0.5,0.3s-0.2,0.2-0.6,0.4
	c-0.2,0.1-0.4,0.3-0.4,0.5c0.1,0.4,0.2,0.7,0.4,1c0.4,0.9,4.5,7.9,4.9,8.7c0.3-0.7,4-7.1,4.4-8c0.2-0.5,0.3-1,0.4-1.6
	c0-0.4-0.2-0.7-0.6-0.7c0,0,0,0,0,0c-0.3-0.1-0.5-0.1-0.5-0.3s0.2-0.3,0.5-0.3c1,0,1.9,0.1,2.7,0.1c0.6,0,2.5-0.1,3.1-0.1
	c0.4,0,0.5,0.1,0.5,0.3s-0.3,0.3-0.5,0.3c-0.4,0-0.9,0.1-1.3,0.4c-0.6,0.3-0.9,0.6-1.5,1.5c-2,3-3.9,6.1-5.6,9.3
	c-0.4,0.9-0.5,1.9-0.5,2.9v2.4c0,0.4,0,1.7,0.1,2.9c0.1,0.8,0.4,1.5,1.2,1.6c0.5,0.1,1,0.1,1.5,0.1c0.4,0,0.5,0.1,0.5,0.3
	s-0.3,0.3-0.6,0.3c-1.8,0-3.7-0.1-4.5-0.1s-2.5,0.1-3.6,0.1c-0.4,0-0.6-0.1-0.6-0.3s0.2-0.3,0.5-0.3s0.7-0.1,1-0.1
	c0.5-0.1,0.8-0.7,0.9-1.6c0.1-1.2,0.1-2.5,0.1-2.9L733.4,145.3L733.4,145.3z"/>
<path class="st0" d="M755.3,141.9c0-5,3.3-11.4,12-11.4c7.3,0,11.8,4.2,11.8,10.9s-4.7,11.9-12.1,11.9
	C758.7,153.4,755.3,147.1,755.3,141.9z M775.1,142.4c0-6.6-3.7-10.6-8.6-10.6c-3.4,0-7.2,1.8-7.2,9.1c0,6.1,3.4,10.8,8.9,10.8
	C770.3,151.9,775,150.9,775.1,142.4L775.1,142.4z"/>
<path class="st0" d="M788.9,144.4c-0.1,2.1,0,4.1,0.2,6.2c0.1,0.8,0.3,1.5,1.1,1.6c0.5,0.1,1,0.1,1.5,0.1c0.4,0,0.5,0.1,0.5,0.3
	s-0.2,0.3-0.6,0.3c-1.8,0-3.7-0.1-4.5-0.1s-2.5,0.1-3.7,0.1c-0.4,0-0.6-0.1-0.6-0.3s0.1-0.3,0.5-0.3s0.8-0.1,1.1-0.1
	c0.5-0.1,0.7-0.7,0.8-1.6c0.2-2.1,0.2-4.1,0.2-6.2v-5.1c0-4.5,0-5.3-0.1-6.2s-0.3-1.5-1.3-1.6c-0.4-0.1-0.7-0.1-1.1-0.1
	c-0.3,0-0.5-0.1-0.5-0.3s0.3-0.3,0.6-0.3h2.4c0.7,0,1.5,0.1,1.8,0.1h7.8c0.4,0,0.8,0,1.2-0.1c0.1-0.1,0.3-0.1,0.5-0.2
	c0.1,0,0.2,0.1,0.2,0.3s-0.2,0.6-0.3,1.3c0,0.8-0.1,1.6-0.2,2.4c0,0.3-0.1,0.4-0.3,0.4s-0.3-0.2-0.3-0.5c0-0.4,0-0.7-0.2-1.1
	c-0.5-0.6-1.2-0.9-1.9-0.9l-4.5-0.1c-0.2,0-0.3,0.1-0.3,0.4v7.3c0,0.2,0,0.3,0.2,0.3h5c0.5,0,1-0.2,1.3-0.6c0.2-0.2,0.2-0.3,0.4-0.3
	s0.2,0.1,0.2,0.3s-0.2,0.9-0.3,1.8c-0.1,0.7-0.1,1.4-0.1,2.1c0,0.3,0,0.5-0.3,0.5s-0.3-0.2-0.3-0.4c0-0.3-0.1-0.6-0.2-0.9
	c-0.3-0.6-0.8-1-1.5-1.1c-0.7-0.1-3.8-0.1-4.3-0.1c-0.2,0-0.2,0.1-0.2,0.3v2.4L788.9,144.4z"/>
<path class="st0" d="M813.8,149c0.1,2.3,0.5,3,1,3.3c0.5,0.1,1,0.2,1.5,0.2c0.4,0,0.5,0.1,0.5,0.3s-0.3,0.3-0.6,0.3
	c-1.9,0-3.1-0.1-3.7-0.1c-0.3,0-1.6,0.1-3.2,0.1c-0.4,0-0.6,0-0.6-0.3s0.2-0.3,0.5-0.3c0.4,0,0.9,0,1.3-0.2c0.7-0.3,0.9-1.1,0.9-3.6
	l0.3-17.3c0-0.6,0.1-1,0.4-1s0.5,0.4,1.1,0.9c0.4,0.4,4.7,5.1,9,9.4c2,2,5.9,6.2,6.4,6.6h0.2l-0.3-13.1c0-1.8-0.3-2.4-1-2.6
	c-0.5-0.1-1-0.2-1.5-0.2c-0.4,0-0.5-0.1-0.5-0.3s0.4-0.3,0.7-0.3c1.5,0,2.9,0.1,3.5,0.1c0.4,0,1.5-0.1,2.8-0.1c0.4,0,0.6,0,0.6,0.3
	s-0.2,0.3-0.5,0.3c-0.3,0-0.6,0-0.9,0.1c-0.8,0.3-1.1,0.8-1.1,2.5l-0.4,18.4c0,0.6-0.1,0.9-0.4,0.9s-0.6-0.4-1-0.6
	c-1.8-1.7-5.6-5.6-8.6-8.6c-3.2-3.2-6.4-6.8-6.9-7.4h-0.1L813.8,149z"/>
<path class="st0" d="M839.7,139.3c0-4.5,0-5.3-0.1-6.2s-0.3-1.5-1.3-1.6c-0.4-0.1-0.7-0.1-1.1-0.1c-0.4,0-0.5-0.1-0.5-0.3
	s0.2-0.3,0.6-0.3h2.4c0.7,0,1.5,0.1,1.8,0.1h7.3c0.5-0.1,1-0.1,1.3-0.2c0.2,0,0.3-0.1,0.5-0.1c0.1,0,0.2,0.1,0.2,0.3
	c-0.1,0.6-0.2,1.3-0.3,1.9c0,0.6-0.1,1.3-0.2,1.9c0,0.2-0.1,0.4-0.3,0.4s-0.3-0.2-0.3-0.4c0-0.4,0-0.7-0.2-1.1
	c-0.2-0.5-0.5-0.9-1.9-1.1c-0.5-0.1-3.5-0.1-4.1-0.1c-0.2,0-0.2,0.1-0.2,0.3v7.4c0,0.2,0,0.4,0.2,0.4c0.6,0,4,0,4.7-0.1
	c0.5,0,1-0.2,1.4-0.5c0.2-0.3,0.4-0.4,0.5-0.4s0.2,0.1,0.2,0.3s-0.1,0.6-0.3,2.1c0,0.5-0.1,1.7-0.1,1.9s0,0.5-0.3,0.5
	c-0.1,0-0.3-0.1-0.3-0.2c0,0,0,0,0-0.1c0-0.4,0-0.7-0.1-1.1c-0.2-0.6-0.5-1-1.6-1.1c-0.5-0.1-3.5-0.1-4.1-0.1
	c-0.2,0-0.2,0.1-0.2,0.3v6.8c0.1,2,0.5,2.5,3.5,2.5c0.9,0.1,1.9-0.1,2.7-0.4c0.8-0.5,1.3-1.3,1.3-2.2c0.1-0.4,0.1-0.5,0.4-0.5
	s0.3,0.3,0.3,0.6c0,0.6-0.3,2.6-0.4,3.3s-0.5,0.7-1.5,0.7c-2.2,0-3.8-0.1-5-0.1s-2.2-0.1-3-0.1h-1.6c-0.6,0-1.5,0.1-2,0.1
	c-0.4,0-0.5-0.1-0.5-0.3s0.1-0.3,0.5-0.3s0.8-0.1,1.1-0.1c0.5-0.1,0.7-0.7,0.8-1.6c0.2-2.1,0.2-4.1,0.2-6.2v-5.1L839.7,139.3z"/>
<path class="st0" d="M855.6,133.8c-0.4-1.1-0.6-1.8-1.1-2.1c-0.4-0.2-0.8-0.3-1.2-0.3c-0.3,0-0.5,0-0.5-0.3s0.3-0.3,0.6-0.3
	c1.5,0,3.1,0.1,3.4,0.1s1.5-0.1,3.3-0.1c0.4,0,0.6,0.1,0.6,0.3s-0.3,0.3-0.5,0.3c-0.2,0-0.5,0-0.7,0.1c-0.2,0.1-0.4,0.4-0.4,0.6
	c0.1,0.9,0.3,1.8,0.6,2.6c0.5,1.9,3.2,10.8,3.7,12.4h0.1l5.7-15.2c0.3-0.8,0.5-1.1,0.7-1.1s0.5,0.5,0.8,1.4l6.1,14.7h0.1
	c0.5-1.9,2.8-9.6,3.9-13c0.2-0.6,0.3-1.1,0.3-1.7c0-0.5-0.3-0.9-1.4-0.9c-0.3,0-0.5-0.1-0.5-0.3s0.3-0.3,0.6-0.3
	c1.5,0,2.7,0.1,3,0.1s1.5-0.1,2.5-0.1c0.4,0,0.5,0.1,0.5,0.3c0,0.2-0.2,0.3-0.4,0.3c-0.3,0-0.7,0-1,0.2c-0.7,0.3-1,1.4-1.6,3.1
	c-1.4,3.6-4.4,12.9-5.8,17.3c-0.4,1-0.5,1.4-0.8,1.4s-0.5-0.4-0.9-1.5l-6.1-14.6h-0.1c-0.5,1.4-4.5,11.8-5.7,14.5
	c-0.5,1.2-0.7,1.6-1.1,1.6s-0.4-0.4-0.6-1.1L855.6,133.8z"/>
<path class="st0" d="M901.8,145.3c0-1.1-0.2-2.1-0.6-3.1c-0.2-0.5-4.1-6.9-5.1-8.4c-0.5-0.8-1.2-1.6-2-2.1c-0.4-0.2-0.8-0.3-1.2-0.4
	c-0.3,0-0.5-0.1-0.5-0.3s0.2-0.3,0.5-0.3c0.5,0,2.7,0.1,3.6,0.1c0.6,0,1.8-0.1,3.1-0.1c0.3,0,0.5,0.1,0.5,0.3s-0.2,0.2-0.6,0.4
	c-0.2,0.1-0.4,0.3-0.4,0.5c0.1,0.4,0.2,0.7,0.4,1c0.4,0.9,4.5,7.9,4.9,8.7c0.3-0.7,4-7.1,4.4-8c0.2-0.5,0.3-1,0.4-1.6
	c0-0.4-0.2-0.7-0.6-0.7c0,0,0,0,0,0c-0.3-0.1-0.5-0.1-0.5-0.3s0.2-0.3,0.5-0.3c1,0,1.9,0.1,2.7,0.1c0.6,0,2.5-0.1,3.1-0.1
	c0.4,0,0.5,0.1,0.5,0.3s-0.3,0.3-0.5,0.3c-0.4,0-0.9,0.1-1.3,0.4c-0.6,0.3-0.9,0.6-1.5,1.5c-2,3-3.9,6.1-5.6,9.3
	c-0.4,0.9-0.5,1.9-0.5,2.9v2.4c0,0.4,0,1.7,0.1,2.9c0.1,0.8,0.4,1.5,1.2,1.6c0.5,0.1,1,0.1,1.5,0.1c0.4,0,0.5,0.1,0.5,0.3
	s-0.3,0.3-0.6,0.3c-1.8,0-3.7-0.1-4.5-0.1s-2.5,0.1-3.6,0.1c-0.4,0-0.6-0.1-0.6-0.3s0.2-0.3,0.5-0.3s0.7-0.1,1-0.1
	c0.5-0.1,0.8-0.7,0.9-1.6c0.1-1.2,0.1-2.5,0.1-2.9L901.8,145.3L901.8,145.3z"/>
<path class="st0" d="M914.3,141.9c0-5,3.3-11.4,12-11.4c7.3,0,11.8,4.2,11.8,10.9s-4.6,11.9-12.1,11.9
	C917.7,153.4,914.3,147.1,914.3,141.9z M934,142.4c0-6.6-3.7-10.6-8.6-10.6c-3.4,0-7.2,1.8-7.2,9.1c0,6.1,3.4,10.8,8.9,10.8
	C929.4,151.9,934,150.9,934,142.4L934,142.4z"/>
<path class="st0" d="M944.2,139.3c0-4.5,0-5.3-0.1-6.2s-0.3-1.5-1.3-1.6c-0.4-0.1-0.7-0.1-1.1-0.1c-0.4,0-0.5-0.1-0.5-0.3
	s0.2-0.3,0.6-0.3c1.5,0,3.4,0.1,4,0.1c1,0,3.2-0.1,4.1-0.1c1.9-0.1,3.8,0.3,5.4,1.3c1.3,0.9,2,2.4,2,4c0,2.2-0.9,4.1-3.8,6.6
	c2.5,3.3,4.6,5.8,6.3,7.7c0.8,1,2,1.7,3.3,2c0.3,0.1,0.5,0.1,0.8,0.1c0.3,0,0.4,0.1,0.4,0.3s-0.2,0.3-0.5,0.3h-2.7
	c-1.1,0.1-2.1-0.1-3.1-0.6c-1.3-0.6-2.4-2-4-4.3c-1.2-1.6-2.6-3.6-2.9-4c-0.1-0.1-0.3-0.2-0.5-0.2l-2.5-0.1c-0.1,0-0.3,0.1-0.3,0.2
	c0,0,0,0,0,0.1v0.4c-0.1,2.1,0,4.2,0.2,6.3c0.1,0.8,0.3,1.5,1.1,1.6c0.5,0.1,1,0.1,1.5,0.1c0.3,0,0.4,0.1,0.4,0.3s-0.2,0.3-0.5,0.3
	c-1.7,0-3.8-0.1-4.3-0.1s-2.4,0.1-3.5,0.1c-0.4,0-0.5-0.1-0.5-0.3s0.1-0.3,0.5-0.3s0.8-0.1,1.1-0.1c0.5-0.1,0.7-0.7,0.8-1.6
	c0.2-2.1,0.2-4.1,0.2-6.2v-5.3L944.2,139.3z M947.7,141.6c0,0.4,0.1,0.5,0.3,0.6c0.7,0.2,1.5,0.3,2.2,0.3c0.7,0.1,1.5-0.1,2.1-0.4
	c0.9-0.6,1.7-2,1.7-4.4c0-4.1-2.7-5.4-4.5-5.4c-0.5,0-1,0-1.5,0.1c-0.2,0.1-0.3,0.2-0.3,0.4L947.7,141.6L947.7,141.6z"/>
<path class="st0" d="M969.8,140.6h0.2c1-1.1,5.3-5.5,6.1-6.4s1.5-1.7,1.5-2.2s-0.1-0.5-0.4-0.5s-0.4-0.1-0.4-0.3s0.2-0.3,0.5-0.3
	c0.6,0,2.2,0.1,3,0.1s2.6-0.1,3.4-0.1c0.3,0,0.5,0.1,0.5,0.3s-0.2,0.3-0.5,0.3c-0.6,0-1.2,0.1-1.7,0.4c-1.2,0.5-2.3,1.3-3.2,2.2
	c-0.9,0.9-5.3,5.3-6.3,6.3c1.1,1.4,6.7,7.6,7.9,8.6c1.2,1.3,2.6,2.4,4.2,3.2c0.6,0.3,1.2,0.4,1.8,0.4c0.2,0,0.4,0.1,0.4,0.3
	s-0.2,0.3-0.7,0.3h-2.5c-0.7,0-1.3,0-2-0.1c-1.4-0.2-2.7-0.9-3.7-1.9c-1.3-1.1-7-7.8-7.7-8.8l-0.4-0.5h-0.2v2.6c0,2.6,0,5,0.1,6.3
	c0.1,0.8,0.4,1.5,1.1,1.6c0.5,0.1,1,0.1,1.5,0.1c0.3,0,0.4,0.1,0.4,0.3s-0.3,0.3-0.5,0.3c-1.6,0-3.5-0.1-4.2-0.1s-2.5,0.1-3.6,0.1
	c-0.4,0-0.5-0.1-0.5-0.3s0.1-0.3,0.5-0.3s0.8-0.1,1.1-0.1c0.5-0.1,0.7-0.7,0.8-1.6c0.2-2.1,0.2-4.1,0.2-6.2v-5.1
	c0-4.5,0-5.3-0.1-6.2s-0.3-1.5-1.3-1.6c-0.4-0.1-0.7-0.1-1.1-0.1c-0.4,0-0.5-0.1-0.5-0.3s0.2-0.3,0.6-0.3c1.5,0,3.4,0.1,4.1,0.1
	s2.5-0.1,3.5-0.1c0.4,0,0.6,0.1,0.6,0.3s-0.2,0.3-0.4,0.3c-0.3,0-0.6,0-0.8,0.1c-0.8,0.2-1,0.6-1.1,1.6s-0.1,1.7-0.1,6.2
	L969.8,140.6L969.8,140.6z"/>
</svg>
