<?xml version="1.0" encoding="utf-8"?>
<!-- Generator: Adobe Illustrator 24.0.0, SVG Export Plug-In . SVG Version: 6.00 Build 0)  -->
<svg version="1.1" id="Layer_1" xmlns="http://www.w3.org/2000/svg" xmlns:xlink="http://www.w3.org/1999/xlink" x="0px" y="0px"
	 viewBox="0 0 1167.1 196.7" style="enable-background:new 0 0 1167.1 196.7;" xml:space="preserve">
<style type="text/css">
	.st0{fill:#FFFFFF;}
	.st1{fill-rule:evenodd;clip-rule:evenodd;fill:#FFFFFF;}
</style>
<g>
	<g>
		<path class="st0" d="M146.8,99.8c-6-5.4-7.5-12.5-7.5-18.4c0-4.2,1.4-11.4,7-17c3.7-3.7,9.4-6.7,19-6.7c2.5,0,6,0.2,9,0.7
			c2.4,0.4,4.4,0.8,6.3,0.9c0.7,0.1,0.8,0.3,0.8,0.7c0,0.5-0.2,1.2-0.3,3.5c-0.1,2.1-0.1,5.5-0.2,6.4c-0.1,0.9-0.2,1.3-0.6,1.3
			c-0.4,0-0.5-0.4-0.5-1.3c0-2.4-1-5-2.6-6.3c-2.2-1.9-7-3.5-12.4-3.5c-8.3,0-12.1,2.4-14.3,4.5c-4.5,4.4-5.6,9.9-5.6,16.2
			c0,11.9,9.1,22.8,22.4,22.8c4.7,0,8.3-0.6,10.8-3.1c1.3-1.4,2.1-4.1,2.3-5.2c0.1-0.7,0.2-0.9,0.6-0.9c0.3,0,0.4,0.4,0.4,0.9
			c0,0.4-0.7,5.8-1.4,8c-0.4,1.2-0.5,1.3-1.6,1.8c-2.5,1-7.2,1.4-11.2,1.4C158,106.5,151.7,104.2,146.8,99.8z"/>
		<path class="st0" d="M208.4,64.9c12.3,0,21.6,7.5,21.6,19.8c0,11.8-8.8,21.6-21.9,21.6c-15,0-21.4-11.2-21.4-20.8
			C186.7,77,193.3,64.9,208.4,64.9z M209.6,104.1c4.9,0,14.8-2.6,14.8-17.9c0-12.7-7.7-19.3-16.3-19.3c-9.1,0-15.7,5.7-15.7,17.2
			C192.4,96.4,199.7,104.1,209.6,104.1z"/>
		<path class="st0" d="M244.8,90.4c0,7.8,0.1,10.9,1.1,11.9c0.9,0.9,3,1.2,7.3,1.2c2.9,0,5.3-0.1,6.6-1.6c0.7-0.8,1.1-1.9,1.3-3
			c0.1-0.4,0.2-0.7,0.6-0.7c0.2,0,0.4,0.2,0.4,0.8c0,0.6-0.4,3.7-0.8,5.3c-0.4,1.2-0.6,1.4-3.5,1.4c-3.9,0-7-0.1-9.5-0.2
			s-4.4-0.1-6-0.1c-0.2,0-1.2,0-2.2,0.1c-1.1,0.1-2.3,0.1-3.2,0.1c-0.6,0-0.9-0.1-0.9-0.4c0-0.2,0.1-0.4,0.4-0.4
			c0.5,0,1.2-0.1,1.7-0.2c1.1-0.3,1.2-1.2,1.4-2.8c0.3-2.2,0.3-6.3,0.3-11.4v-9.3c0-8.2,0-9.7-0.1-11.4c-0.1-1.8-0.4-2.7-2.2-2.9
			c-0.4-0.1-1.4-0.1-1.9-0.1c-0.2,0-0.4-0.2-0.4-0.4c0-0.3,0.2-0.4,0.9-0.4c2.5,0,5.9,0.1,6.2,0.1c0.2,0,4.4-0.1,6-0.1
			c0.6,0,0.9,0.1,0.9,0.4c0,0.2-0.2,0.4-0.4,0.4c-0.4,0-1.2,0.1-1.8,0.1c-1.6,0.3-1.9,1.1-2.1,3c-0.1,1.7-0.1,3.2-0.1,11.4V90.4z"/>
		<path class="st0" d="M267.6,80.9c0-8.2,0-9.7-0.1-11.4c-0.1-1.7-0.4-2.7-2.2-2.9c-0.4-0.1-1.4-0.1-1.9-0.1c-0.2,0-0.4-0.2-0.4-0.4
			c0-0.3,0.2-0.4,0.9-0.4c2.5,0,5.8,0.1,6.3,0.1s3.9-0.1,5.5-0.1c0.6,0,0.9,0.1,0.9,0.4c0,0.2-0.2,0.4-0.5,0.4c-0.4,0-0.7,0-1.4,0.1
			c-1.4,0.2-1.7,1.2-1.9,2.9c-0.1,1.7-0.1,3.2-0.1,11.4v7.4c0,7.6,1.7,10.8,4,12.9c2.7,2.4,5,2.9,8.1,2.9c3.4,0,6.6-1.5,8.5-3.7
			c2.5-3,3.1-7.4,3.1-12.8v-6.7c0-8.2-0.1-9.7-0.1-11.4c-0.1-1.7-0.4-2.7-2.2-2.9c-0.4-0.1-1.4-0.1-1.9-0.1c-0.2,0-0.4-0.2-0.4-0.4
			c0-0.3,0.2-0.4,0.9-0.4c2.4,0,5.6,0.1,5.9,0.1c0.4,0,3-0.1,4.6-0.1c0.6,0,0.9,0.1,0.9,0.4c0,0.2-0.2,0.4-0.4,0.4
			c-0.4,0-0.7,0-1.4,0.1c-1.5,0.3-1.8,1.2-1.9,2.9c-0.1,1.7-0.1,3.2-0.1,11.4v5.7c0,5.7-0.7,12.1-5.1,15.9c-4,3.4-8.2,3.9-11.4,3.9
			c-1.8,0-7.5-0.1-11.4-3.7c-2.7-2.5-4.8-6.2-4.8-13.9V80.9z"/>
		<path class="st0" d="M353.9,98.8c0.2,1.9,0.6,4.7,2.8,5.5c1.6,0.5,3,0.5,3.5,0.5c0.2,0,0.4,0.1,0.4,0.4s-0.5,0.5-1.1,0.5
			c-1.2,0-7.3-0.1-9.3-0.3c-1.3-0.1-1.6-0.3-1.6-0.6c0-0.2,0.1-0.4,0.4-0.4c0.3-0.1,0.4-0.9,0.2-1.9l-2.6-26.7h-0.1l-13.2,27
			c-1.1,2.3-1.4,2.8-1.9,2.8s-0.8-0.5-1.9-2.4c-1.4-2.6-5-9.4-6.4-12.2c-1.6-3.4-6-12.2-7-14.4H316l-2.1,23.9
			c-0.1,0.8-0.1,1.8-0.1,2.7c0,0.8,0.5,1.3,1.3,1.5c0.9,0.2,1.7,0.3,2.1,0.3c0.2,0,0.4,0.2,0.4,0.4c0,0.4-0.4,0.5-1,0.5
			c-2.1,0-4.7-0.2-5.1-0.2c-0.5,0-3.1,0.2-4.6,0.2c-0.6,0-0.9-0.1-0.9-0.5c0-0.2,0.2-0.4,0.6-0.4s0.8-0.1,1.6-0.2
			c1.8-0.3,1.9-2.2,2.1-4.2l4-34.5c0.1-0.6,0.3-0.9,0.6-0.9c0.4,0,0.8,0.2,1.1,0.8l16.5,32.8L348.4,66c0.2-0.5,0.5-0.9,0.9-0.9
			s0.7,0.4,0.8,1.4L353.9,98.8z"/>
		<path class="st0" d="M369.7,80.9c0-8.2,0-9.7-0.1-11.4c-0.1-1.8-0.4-2.8-2.2-3c-0.4-0.1-1.4-0.1-1.9-0.1c-0.2,0-0.4-0.1-0.4-0.3
			c0-0.3,0.2-0.4,0.9-0.4c2.5,0,6,0.1,6.3,0.1c1.3,0,3.9-0.1,6.4-0.1c9.1,0,11.5,5.3,11.5,8.1c0,4.2-2.7,6.8-5.5,9.3
			c4.2,1.2,9.6,5,9.6,11c0,5.9-4.4,11.8-13.7,11.8c-1,0-3-0.1-4.7-0.2s-3.3-0.1-3.5-0.1c-0.1,0-1.1,0.1-2.2,0.1
			c-1.1,0.1-2.4,0.1-3.3,0.1c-0.6,0-0.9-0.1-0.9-0.4c0-0.2,0.1-0.3,0.4-0.3c0.5,0,1.2-0.2,1.7-0.2c1.1-0.2,1.2-1.4,1.4-2.9
			c0.3-2.2,0.3-6.3,0.3-11.4L369.7,80.9L369.7,80.9z M374.4,82.1c0,0.4,0.1,0.5,0.4,0.6s1.3,0.2,3.4,0.2c3,0,4.2-0.1,5.3-1.4
			c1.2-1.3,2.1-3.1,2.1-5.7c0-4-2.2-8.5-7.7-8.5c-0.6,0-1.9,0.1-2.8,0.2c-0.5,0.1-0.7,0.2-0.7,0.6L374.4,82.1L374.4,82.1z
			 M374.4,87.9c0,4.1,0,10.4,0.1,11.3c0.2,2.5,0.2,3.2,1.9,4c1.5,0.7,3.8,0.7,4.8,0.7c3.6,0,8-1.4,8-8.1c0-2.4-0.9-6.9-5.2-9.6
			c-1.9-1.2-3.6-1.1-4.9-1.4c-0.7-0.1-3.4-0.1-4.3-0.1c-0.2,0-0.3,0.1-0.3,0.4v2.8C374.5,87.9,374.4,87.9,374.4,87.9z"/>
		<path class="st0" d="M409.1,90.3c0,5.1,0,9.3,0.2,11.4c0.2,1.6,0.4,2.5,2,2.8c0.8,0.1,2,0.2,2.5,0.2c0.3,0,0.4,0.2,0.4,0.4
			c0,0.2-0.2,0.4-0.9,0.4c-3,0-6.6-0.2-6.8-0.2c-0.3,0-3.7,0.2-5.4,0.2c-0.6,0-0.9-0.1-0.9-0.4c0-0.2,0.1-0.4,0.4-0.4
			c0.5,0,1.2-0.1,1.7-0.2c1.1-0.3,1.2-1.2,1.4-2.8c0.2-2.2,0.3-6.3,0.3-11.4V81c0-8.2,0-9.7-0.1-11.4c-0.1-1.8-0.6-2.6-1.7-2.9
			c-0.6-0.1-1.3-0.2-1.7-0.2c-0.2,0-0.4-0.2-0.4-0.4c0-0.3,0.2-0.4,0.9-0.4c1.8,0,5.2,0.1,5.5,0.1c0.2,0,3.8-0.1,5.5-0.1
			c0.6,0,0.9,0.1,0.9,0.4c0,0.2-0.2,0.4-0.4,0.4c-0.4,0-0.7,0-1.4,0.1c-1.5,0.3-1.8,1.1-1.9,2.9c-0.1,1.7-0.1,3.2-0.1,11.4V90.3z"/>
		<path class="st0" d="M437.4,66.7c0.7-1.7,0.9-2.1,1.3-2.1c0.6,0,0.7,0.7,1.3,1.9c1,2.2,9.8,24.1,13.1,32.1c2,4.7,3.5,5.4,4.7,5.8
			c0.8,0.2,1.6,0.3,2.2,0.3c0.3,0,0.7,0.1,0.7,0.4s-0.6,0.4-1.2,0.4c-0.8,0-4.8,0-8.6-0.1c-1.1-0.1-1.9-0.1-1.9-0.4
			c0-0.2,0.1-0.2,0.4-0.4c0.3-0.1,0.9-0.6,0.5-1.4L445,91.1c-0.1-0.2-0.2-0.3-0.5-0.3h-12.6c-0.2,0-0.4,0.1-0.6,0.4l-3.1,8.5
			c-0.5,1.3-0.8,2.6-0.8,3.5c0,1.1,0.9,1.4,1.9,1.4h0.5c0.4,0,0.6,0.2,0.6,0.4c0,0.3-0.3,0.4-0.8,0.4c-1.3,0-4.3-0.2-4.9-0.2
			s-3.3,0.2-5.5,0.2c-0.7,0-1.1-0.1-1.1-0.4c0-0.2,0.2-0.4,0.5-0.4c0.4,0,1.2-0.1,1.6-0.1c2.5-0.3,3.5-2.2,4.6-4.8L437.4,66.7z
			 M443.5,88.7c0.2,0,0.2-0.1,0.2-0.4l-5.4-14.5c-0.3-0.8-0.6-0.8-0.9,0l-5.1,14.5c-0.1,0.3,0,0.4,0.2,0.4H443.5z"/>
		<path class="st0" d="M475,116.5V54.3h3.4v62.2H475z"/>
		<path class="st0" d="M504.4,99.8c-6-5.4-7.5-12.5-7.5-18.4c0-4.2,1.4-11.4,7-17c3.7-3.7,9.4-6.7,19-6.7c2.5,0,6,0.2,9,0.7
			c2.4,0.4,4.4,0.8,6.3,0.9c0.7,0.1,0.8,0.3,0.8,0.7c0,0.5-0.2,1.2-0.3,3.5c-0.1,2.1-0.1,5.5-0.2,6.4c-0.1,0.9-0.2,1.3-0.6,1.3
			c-0.4,0-0.5-0.4-0.5-1.3c0-2.4-1-5-2.6-6.3c-2.2-1.9-7-3.5-12.4-3.5c-8.3,0-12.1,2.4-14.3,4.5c-4.5,4.4-5.6,9.9-5.6,16.2
			c0,11.9,9.1,22.8,22.4,22.8c4.7,0,8.3-0.6,10.8-3.1c1.3-1.4,2.1-4.1,2.3-5.2c0.1-0.7,0.2-0.9,0.6-0.9c0.3,0,0.4,0.4,0.4,0.9
			c0,0.4-0.7,5.8-1.4,8c-0.4,1.2-0.5,1.3-1.6,1.8c-2.5,1-7.2,1.4-11.2,1.4C515.6,106.5,509.3,104.2,504.4,99.8z"/>
		<path class="st0" d="M566.9,87.6c0,6,0,10.9,0.3,13.5c0.2,1.8,0.6,3.2,2.4,3.4c0.9,0.1,2.2,0.2,2.8,0.2c0.4,0,0.5,0.2,0.5,0.4
			c0,0.3-0.3,0.5-1,0.5c-3.4,0-7.3-0.2-7.6-0.2s-4.2,0.2-6.1,0.2c-0.7,0-1-0.1-1-0.5c0-0.2,0.1-0.4,0.5-0.4c0.6,0,1.3-0.1,1.9-0.2
			c1.2-0.3,1.6-1.6,1.8-3.4c0.3-2.6,0.3-7.5,0.3-13.5V61.3l-9.2,0.1c-3.9,0.1-5.3,0.5-6.3,2c-0.7,1.1-0.9,1.5-1.1,1.9
			c-0.2,0.5-0.4,0.6-0.6,0.6c-0.2,0-0.3-0.2-0.3-0.6c0-0.6,1.2-6,1.4-6.5c0.1-0.4,0.4-1.2,0.6-1.2c0.4,0,1.1,0.6,2.7,0.7
			c1.8,0.2,4.2,0.3,4.9,0.3h23.3c2,0,3.4-0.1,4.4-0.3c0.9-0.1,1.5-0.3,1.7-0.3c0.3,0,0.3,0.4,0.3,0.7c0,1.9-0.2,6.2-0.2,6.8
			c0,0.6-0.2,0.8-0.4,0.8c-0.3,0-0.4-0.2-0.5-1.1l-0.1-0.7c-0.2-1.9-1.7-3.3-7.6-3.4l-7.8-0.1L566.9,87.6L566.9,87.6z"/>
		<path class="st0" d="M600.7,87.7c0,9.1,0.3,13.1,1.4,14.2c1,1,2.6,1.4,7.5,1.4c3.3,0,6-0.1,7.5-1.9c0.8-1,1.4-2.5,1.6-3.7
			c0.1-0.5,0.2-0.8,0.6-0.8c0.3,0,0.4,0.2,0.4,0.9c0,0.7-0.4,4.4-0.9,6.2c-0.4,1.4-0.6,1.7-3.9,1.7c-4.5,0-7.7-0.1-10.3-0.2
			s-4.5-0.2-6.3-0.2c-0.3,0-1.3,0.1-2.5,0.1c-1.2,0.1-2.6,0.1-3.5,0.1c-0.7,0-1-0.1-1-0.5c0-0.2,0.1-0.4,0.5-0.4
			c0.6,0,1.3-0.1,1.9-0.2c1.2-0.3,1.6-1.6,1.8-3.4c0.3-2.6,0.3-7.5,0.3-13.5V76.6c0-9.7,0-11.4-0.1-13.4c-0.1-2.1-0.6-3.1-2.7-3.5
			c-0.5-0.1-1.6-0.2-2.1-0.2c-0.3,0-0.5-0.1-0.5-0.4c0-0.4,0.3-0.5,1-0.5c2.8,0,6.7,0.2,7,0.2s4.8-0.2,6.7-0.2c0.7,0,1,0.1,1,0.5
			c0,0.2-0.3,0.4-0.5,0.4c-0.4,0-1.3,0.1-2.1,0.2c-1.8,0.3-2.3,1.4-2.4,3.5c-0.1,2-0.1,3.7-0.1,13.4v11.1H600.7z"/>
		<path class="st0" d="M143.3,134.2c3.4-2.7,7.8-4,12.7-4c2.5,0,6.1,0.5,8.4,1.1c0.6,0.1,0.9,0.2,1.3,0.2c0,1.1,0.3,4.1,0.7,6.9
			c-0.2,0.3-0.9,0.4-1.3,0.1c-0.7-3.2-2.8-6.9-9.7-6.9c-7.2,0-13.4,4.6-13.4,14.4c0,9.9,6.3,15.4,14,15.4c6.1,0,8.8-4,9.9-6.7
			c0.3-0.2,1-0.1,1.2,0.2c-0.3,2.5-1.6,5.6-2.3,6.5c-0.6,0.1-1.1,0.3-1.7,0.5c-1,0.4-4.4,1.1-7.5,1.1c-4.2,0-8.3-0.8-11.8-3.2
			c-3.8-2.6-6.7-6.9-6.7-13C137.4,141.5,139.7,137,143.3,134.2z"/>
		<path class="st0" d="M174.8,150c-1.2,0-1.3,0.1-1.3,1.3c0,4.8,2.8,8.8,7.8,8.8c1.6,0,2.9-0.5,4.3-2.3c0.5-0.1,0.8,0.1,0.9,0.6
			c-1.6,3.2-5,4.4-7.4,4.4c-3.1,0-5.5-1.3-6.8-3.1c-1.4-1.8-2-4.1-2-6.1c0-5.8,3.8-10.7,9.5-10.7c4.1,0,6.7,2.8,6.7,5.6
			c0,0.7-0.1,1-0.2,1.2c-0.1,0.3-0.8,0.3-2.8,0.3H174.8L174.8,150z M177.7,148.6c3.5,0,4.5-0.2,4.9-0.5c0.1-0.1,0.3-0.3,0.3-0.9
			c0-1.3-0.9-3-3.6-3c-2.8,0-5.2,2.5-5.2,4.1c0,0.1,0,0.2,0.3,0.2L177.7,148.6L177.7,148.6z"/>
		<path class="st0" d="M191.6,148.5c0-1.8,0-2.1-1.3-2.9l-0.4-0.3c-0.2-0.2-0.2-0.7,0-0.8c1.1-0.4,3.8-1.6,4.7-2.3
			c0.2,0,0.4,0.1,0.5,0.3c-0.1,1.1-0.1,1.8-0.1,2.2c0,0.3,0.2,0.5,0.5,0.5c2-1.2,4.2-2.4,6.6-2.4c3.9,0,5.5,2.7,5.5,5.9v8.1
			c0,3.4,0.1,3.9,1.8,4.1l1,0.1c0.3,0.2,0.2,1-0.1,1.2c-1.4-0.1-2.8-0.1-4.4-0.1c-1.7,0-3.1,0-4.4,0.1c-0.3-0.1-0.4-0.9-0.1-1.2
			l0.9-0.1c1.7-0.3,1.8-0.7,1.8-4.1v-7c0-2.7-1.2-4.7-4.4-4.7c-1.8,0-3.4,0.8-4,1.7c-0.6,0.8-0.7,1.5-0.7,2.8v7.2
			c0,3.4,0.1,3.8,1.8,4.1l0.8,0.1c0.3,0.2,0.2,1-0.1,1.2c-1.3-0.1-2.6-0.1-4.3-0.1s-3.1,0-4.4,0.1c-0.3-0.1-0.4-0.9-0.1-1.2l1-0.1
			c1.7-0.2,1.8-0.7,1.8-4.1L191.6,148.5L191.6,148.5z"/>
		<path class="st0" d="M218.9,145.5c-0.8,0-0.9,0.1-0.9,1.1v8.8c0,2.7,0.3,5.2,3.4,5.2c0.5,0,0.9-0.1,1.3-0.2c0.4-0.1,1-0.7,1.2-0.7
			c0.4,0,0.6,0.5,0.5,0.8c-0.8,1-2.5,2.2-5,2.2c-4.1,0-4.9-2.3-4.9-5.1v-10.8c0-1.3,0-1.4-1-1.4h-1.3c-0.3-0.2-0.3-0.7-0.1-1
			c1.4-0.4,2.5-1,3-1.5c0.6-0.6,1.5-1.8,2-2.8c0.2-0.1,0.8-0.1,1,0.2v2.1c0,0.8,0,0.9,0.8,0.9h5.2c0.6,0.4,0.5,1.7,0,2h-5.2V145.5z"
			/>
		<path class="st0" d="M230.6,150c-1.2,0-1.3,0.1-1.3,1.3c0,4.8,2.8,8.8,7.8,8.8c1.6,0,2.9-0.5,4.3-2.3c0.5-0.1,0.8,0.1,0.8,0.6
			c-1.6,3.2-5,4.4-7.4,4.4c-3.1,0-5.5-1.3-6.8-3.1c-1.4-1.8-2-4.1-2-6.1c0-5.8,3.8-10.7,9.5-10.7c4.1,0,6.7,2.8,6.7,5.6
			c0,0.7-0.1,1-0.2,1.2c-0.1,0.3-0.8,0.3-2.8,0.3H230.6L230.6,150z M233.6,148.6c3.5,0,4.5-0.2,4.9-0.5c0.1-0.1,0.3-0.3,0.3-0.9
			c0-1.3-0.9-3-3.6-3c-2.8,0-5.2,2.5-5.2,4.1c0,0.1,0,0.2,0.3,0.2L233.6,148.6L233.6,148.6z"/>
		<path class="st0" d="M247.4,148.5c0-1.8,0-2.1-1.3-2.9l-0.4-0.3c-0.2-0.2-0.2-0.7,0-0.8c1.1-0.4,3.6-1.6,4.8-2.3
			c0.2,0,0.4,0.1,0.4,0.3v2.7c0,0.2,0,0.4,0.1,0.4c1.7-1.4,3.4-2.8,5.2-2.8c1.2,0,2.1,0.8,2.1,1.9c0,1.6-1.3,2.2-2,2.2
			c-0.5,0-0.7-0.1-1-0.3c-0.7-0.5-1.4-0.8-2.1-0.8c-0.8,0-1.3,0.4-1.7,0.9c-0.5,0.7-0.6,2-0.6,3.6v6.4c0,3.4,0.1,4,1.9,4.1l1.7,0.1
			c0.3,0.2,0.2,1-0.1,1.2c-2.2-0.1-3.6-0.1-5.2-0.1c-1.7,0-3.1,0-4.3,0.1c-0.3-0.1-0.4-0.9-0.1-1.2l0.9-0.1c1.7-0.3,1.8-0.7,1.8-4.1
			L247.4,148.5L247.4,148.5z"/>
		<path class="st0" d="M279,145.5c-0.8,0-0.8,0.1-0.8,1.4v10c0,3.4,0.1,4,1.8,4.1l1.7,0.1c0.3,0.2,0.2,1-0.1,1.2
			c-2.1-0.1-3.5-0.1-5.1-0.1c-1.7,0-3.1,0-4.5,0.1c-0.3-0.1-0.4-0.9-0.1-1.2l1.1-0.1c1.7-0.2,1.8-0.7,1.8-4.1v-10
			c0-1.3,0-1.4-0.9-1.4h-1.7c-0.3-0.2-0.3-0.6-0.1-0.9l2-1c0.4-0.2,0.7-0.5,0.7-0.9c0-2.7,0.3-5.7,1.5-8.3c1.2-2.7,3.8-6,8.5-6
			c2.5,0,4.6,1.1,4.6,2.8c0,0.9-0.9,1.7-1.8,1.7c-0.5,0-0.8-0.2-1.1-0.6c-0.9-1-2.2-2.1-3.8-2.1c-1.5,0-2.6,0.9-3.4,2.6
			c-0.8,2.2-1,5.6-1,8v1.4c0,1.3,0,1.3,0.8,1.3h5.4c0.5,0.5,0.2,1.8-0.3,2H279z"/>
		<path class="st0" d="M304.8,152.6c0,5.9-4.1,10.1-10,10.1c-5.4,0-9.7-3.8-9.7-9.7s4.5-10.2,10.1-10.2
			C300.6,142.8,304.8,146.8,304.8,152.6z M294.7,144.2c-3.1,0-5.4,3-5.4,8.2c0,4.3,1.9,8.9,6.1,8.9s5.4-4.3,5.4-8
			C300.8,149.3,299.2,144.2,294.7,144.2z"/>
		<path class="st0" d="M310.2,148.5c0-1.8,0-2.1-1.3-2.9l-0.4-0.3c-0.2-0.2-0.2-0.7,0-0.8c1.1-0.4,3.6-1.6,4.8-2.3
			c0.2,0,0.4,0.1,0.4,0.3v2.7c0,0.2,0,0.4,0.1,0.4c1.7-1.4,3.4-2.8,5.2-2.8c1.2,0,2.1,0.8,2.1,1.9c0,1.6-1.3,2.2-2,2.2
			c-0.5,0-0.7-0.1-1-0.3c-0.7-0.5-1.4-0.8-2.1-0.8c-0.8,0-1.3,0.4-1.7,0.9c-0.5,0.7-0.6,2-0.6,3.6v6.4c0,3.4,0.1,4,1.9,4.1l1.7,0.1
			c0.3,0.2,0.2,1-0.1,1.2c-2.2-0.1-3.6-0.1-5.2-0.1c-1.7,0-3.1,0-4.3,0.1c-0.3-0.1-0.4-0.9-0.1-1.2l0.9-0.1c1.7-0.3,1.8-0.7,1.8-4.1
			L310.2,148.5L310.2,148.5z"/>
		<path class="st0" d="M350.4,155c0,5,0.1,5.7,2.8,5.9l1.5,0.1c0.3,0.2,0.2,1-0.1,1.2c-2.7-0.1-4.3-0.1-6.2-0.1
			c-1.9,0-3.5,0-6.6,0.1c-0.3-0.1-0.4-0.9,0-1.2l1.7-0.1c2.7-0.2,2.9-0.9,2.9-5.9v-21.1c0-1.5,0-1.5-1.4-1.5h-2.6
			c-2,0-4.6,0.1-5.8,1.2c-1.1,1-1.6,2.1-2.1,3.3c-0.4,0.3-1,0-1.2-0.3c0.8-2.1,1.5-5.1,1.8-7c0.1-0.1,0.8-0.1,0.9,0
			c0.3,1.5,1.8,1.5,4,1.5h19.1c2.5,0,3-0.1,3.7-1.3c0.2-0.1,0.8,0,0.9,0.1c-0.5,1.9-0.9,5.8-0.7,7.2c-0.2,0.4-1,0.4-1.2,0.1
			c-0.1-1.2-0.5-2.9-1.2-3.4c-1.1-0.8-2.9-1.2-5.5-1.2h-3.4c-1.4,0-1.4,0-1.4,1.6V155H350.4z"/>
		<path class="st0" d="M365.6,150c-1.2,0-1.3,0.1-1.3,1.3c0,4.8,2.8,8.8,7.8,8.8c1.6,0,2.9-0.5,4.3-2.3c0.5-0.1,0.8,0.1,0.9,0.6
			c-1.6,3.2-5,4.4-7.4,4.4c-3.1,0-5.5-1.3-6.8-3.1c-1.4-1.8-2-4.1-2-6.1c0-5.8,3.8-10.7,9.5-10.7c4.1,0,6.7,2.8,6.7,5.6
			c0,0.7-0.1,1-0.2,1.2c-0.1,0.3-0.8,0.3-2.8,0.3H365.6L365.6,150z M368.5,148.6c3.5,0,4.5-0.2,4.9-0.5c0.1-0.1,0.3-0.3,0.3-0.9
			c0-1.3-0.9-3-3.6-3c-2.8,0-5.2,2.5-5.2,4.1c0,0.1,0,0.2,0.3,0.2L368.5,148.6L368.5,148.6z"/>
		<path class="st0" d="M389.6,152.3c0.7-0.2,0.8-0.7,0.8-1.4v-2.2c0-1.7-0.5-4.1-3.4-4.1c-1.3,0-2.9,0.7-3,2.1
			c0,0.8-0.1,1.3-0.5,1.6c-0.7,0.6-2,0.9-2.7,0.9c-0.4,0-0.7-0.2-0.7-0.7c0-2.5,5.3-5.8,8.8-5.8c3.4,0,5.1,2,4.9,5.5l-0.3,8.2
			c-0.1,2.2,0.3,4.1,2.2,4.1c0.5,0,0.9-0.1,1.2-0.3c0.2-0.1,0.5-0.3,0.6-0.3c0.2,0,0.3,0.3,0.3,0.6c0,0.2-1.7,2.1-4,2.1
			c-1.1,0-2.3-0.4-3.1-1.5c-0.2-0.3-0.5-0.7-0.8-0.7s-0.9,0.4-1.8,0.9c-1,0.6-2.1,1.2-3.4,1.2c-1.4,0-2.5-0.4-3.3-1.1
			c-0.9-0.8-1.5-2-1.5-3.3c0-1.8,0.9-2.9,3.9-4L389.6,152.3z M386.7,160.6c0.9,0,2.4-0.7,2.9-1.2c0.6-0.6,0.6-1.2,0.6-2.2l0.1-2.8
			c0-0.5-0.2-0.6-0.5-0.6s-1.1,0.2-1.9,0.5c-2.8,0.9-4.2,1.7-4.2,3.5C383.7,158.6,384.3,160.6,386.7,160.6z"/>
		<path class="st0" d="M414.7,143.6c0.4,0.3,0.7,1.1,0.7,1.9c0,0.9-0.5,1.7-1,1.7c-0.2,0-0.5-0.1-0.7-0.3c-1-1.3-2.8-2.5-4.7-2.5
			c-3.3,0-6.5,2.6-6.5,7.6c0,3.7,2.5,8.1,7.6,8.1c2.7,0,4.2-1.2,5.2-2.8c0.4-0.1,0.8,0.2,0.8,0.7c-1.6,3.5-5.1,4.8-7.9,4.8
			c-2.5,0-4.8-0.8-6.5-2.4s-2.7-3.9-2.7-7c0-5.1,3.6-10.5,11.4-10.5C411.6,142.8,413.4,143.1,414.7,143.6z"/>
		<path class="st0" d="M420.6,135.5c0-2.8,0-3.1-1.5-3.9l-0.5-0.3c-0.2-0.1-0.2-0.8,0-0.9c1.2-0.4,3.4-1.1,5.1-2
			c0.2,0,0.4,0.1,0.5,0.3c0,1.4-0.1,3.8-0.1,5.9v9.9c0,0.4,0,0.8,0.2,0.9c1.7-1.3,4-2.5,6.4-2.5c4.5,0,6.1,2.8,6.1,6.1v7.9
			c0,3.4,0.1,3.9,1.8,4.1l1.3,0.1c0.3,0.2,0.2,1-0.1,1.2c-1.7-0.1-3.1-0.1-4.7-0.1c-1.7,0-3.1,0-4.4,0.1c-0.3-0.1-0.4-0.9-0.1-1.2
			l0.9-0.1c1.7-0.3,1.8-0.7,1.8-4.1v-6.8c0-3-1.5-5-4.5-5c-1.6,0-2.8,0.6-3.7,1.3c-0.8,0.7-1,0.9-1,2.6v7.9c0,3.4,0.1,3.9,1.8,4.1
			l1,0.1c0.3,0.2,0.2,1-0.1,1.2c-1.4-0.1-2.8-0.1-4.4-0.1c-1.7,0-3.1,0-4.6,0.1c-0.3-0.1-0.4-0.9-0.1-1.2l1.2-0.1
			c1.7-0.2,1.8-0.7,1.8-4.1L420.6,135.5L420.6,135.5z"/>
		<path class="st0" d="M445.7,148.5c0-1.8,0-2.1-1.3-2.9l-0.4-0.3c-0.2-0.2-0.2-0.7,0-0.8c1.1-0.4,3.8-1.6,4.9-2.3
			c0.2,0,0.4,0.1,0.5,0.3c-0.1,1.7-0.2,3.9-0.2,5.9v8.5c0,3.4,0.1,3.9,1.8,4.1l1,0.1c0.3,0.2,0.2,1-0.1,1.2
			c-1.4-0.1-2.8-0.1-4.4-0.1c-1.7,0-3.1,0-4.4,0.1c-0.3-0.1-0.4-0.9-0.1-1.2l1-0.1c1.7-0.2,1.8-0.7,1.8-4.1L445.7,148.5L445.7,148.5
			z M449.6,135.1c0,1.7-1.2,2.5-2.5,2.5c-1.5,0-2.4-1.1-2.4-2.4c0-1.6,1.1-2.5,2.5-2.5C448.7,132.6,449.6,133.8,449.6,135.1z"/>
		<path class="st0" d="M458.1,148.5c0-1.8,0-2.1-1.3-2.9l-0.4-0.3c-0.2-0.2-0.2-0.7,0-0.8c1.1-0.4,3.8-1.6,4.7-2.3
			c0.2,0,0.4,0.1,0.5,0.3c-0.1,1.1-0.1,1.8-0.1,2.2c0,0.3,0.2,0.5,0.5,0.5c2-1.2,4.2-2.4,6.6-2.4c3.9,0,5.5,2.7,5.5,5.9v8.1
			c0,3.4,0.1,3.9,1.8,4.1l1,0.1c0.3,0.2,0.2,1-0.1,1.2c-1.4-0.1-2.8-0.1-4.4-0.1c-1.7,0-3.1,0-4.4,0.1c-0.3-0.1-0.4-0.9-0.1-1.2
			l0.9-0.1c1.7-0.3,1.8-0.7,1.8-4.1v-7c0-2.7-1.2-4.7-4.4-4.7c-1.8,0-3.4,0.8-4,1.7c-0.6,0.8-0.7,1.5-0.7,2.8v7.2
			c0,3.4,0.1,3.8,1.8,4.1l0.8,0.1c0.3,0.2,0.2,1-0.1,1.2c-1.3-0.1-2.6-0.1-4.3-0.1c-1.7,0-3.1,0-4.4,0.1c-0.3-0.1-0.4-0.9-0.1-1.2
			l1-0.1c1.7-0.2,1.8-0.7,1.8-4.1v-8.3H458.1z"/>
		<path class="st0" d="M499.2,144.5c0.5,0.2,0.4,1.8-0.3,1.9h-3.4c0.1,0.8,0.1,1.6,0.1,2.4c0,3.3-1.9,7.5-7.9,7.5
			c-0.9,0-1.5-0.1-2.1-0.1c-0.6,0.3-2.1,1.2-2.1,2.6c0,1.1,1.1,2,3.3,2c1.6,0,3.5-0.1,5.6-0.1c2.6,0,6.6,0.5,6.6,5.2
			c0,5.1-5.6,8.9-11.8,8.9c-5.8,0-7.8-3.1-7.8-5.5c0-0.8,0.2-1.4,0.5-1.7c0.8-0.8,2.1-2.1,3.2-3.2c0.4-0.4,0.8-0.8,0.4-1.1
			c-1.8-0.5-3.4-2.1-3.4-3.7c0-0.2,0.2-0.4,0.7-0.8c0.8-0.5,1.7-1.3,2.5-2.2c0.2-0.3,0.5-0.7,0.5-0.9c-1.6-0.8-3.5-2.7-3.5-5.7
			c0-4.1,3.5-7.1,7.7-7.1c1.8,0,3.4,0.5,4.5,0.9c1.5,0.7,1.8,0.8,2.9,0.8L499.2,144.5L499.2,144.5z M489.4,163.6
			c-1.5,0-3.4,0.1-4.1,0.5c-1.1,0.7-2.3,2.2-2.3,4c0,2.5,2,4.7,6.3,4.7c4.2,0,7-2.4,7-5.1c0-2.9-2-4.1-5.4-4.1L489.4,163.6
			L489.4,163.6z M492.3,150.1c0-3.2-1.3-5.9-4.2-5.9c-2.3,0-4,2.1-4,5.3c0,3.4,2,5.5,4.3,5.5C491,155,492.3,153,492.3,150.1z"/>
		<path class="st0" d="M522.2,152.3c0.7-0.2,0.8-0.7,0.8-1.4v-2.2c0-1.7-0.5-4.1-3.4-4.1c-1.3,0-2.9,0.7-3,2.1
			c0,0.8-0.1,1.3-0.5,1.6c-0.7,0.6-2,0.9-2.7,0.9c-0.4,0-0.7-0.2-0.7-0.7c0-2.5,5.3-5.8,8.8-5.8c3.4,0,5.1,2,4.9,5.5l-0.3,8.2
			c-0.1,2.2,0.3,4.1,2.2,4.1c0.5,0,0.9-0.1,1.2-0.3c0.2-0.1,0.5-0.3,0.6-0.3c0.2,0,0.3,0.3,0.3,0.6c0,0.2-1.7,2.1-4,2.1
			c-1.1,0-2.3-0.4-3.1-1.5c-0.2-0.3-0.5-0.7-0.8-0.7s-0.9,0.4-1.8,0.9c-1,0.6-2.1,1.2-3.4,1.2c-1.4,0-2.5-0.4-3.3-1.1
			c-0.9-0.8-1.5-2-1.5-3.3c0-1.8,0.9-2.9,3.9-4L522.2,152.3z M519.3,160.6c0.9,0,2.4-0.7,2.9-1.2c0.6-0.6,0.6-1.2,0.6-2.2l0.1-2.8
			c0-0.5-0.2-0.6-0.5-0.6s-1.1,0.2-1.9,0.5c-2.8,0.9-4.2,1.7-4.2,3.5C516.3,158.6,516.9,160.6,519.3,160.6z"/>
		<path class="st0" d="M535.6,148.5c0-1.8,0-2.1-1.3-2.9l-0.4-0.3c-0.2-0.2-0.2-0.7,0-0.8c1.1-0.4,3.8-1.6,4.7-2.3
			c0.2,0,0.4,0.1,0.5,0.3c-0.1,1.1-0.1,1.8-0.1,2.2c0,0.3,0.2,0.5,0.5,0.5c2-1.2,4.2-2.4,6.6-2.4c3.9,0,5.5,2.7,5.5,5.9v8.1
			c0,3.4,0.1,3.9,1.8,4.1l1,0.1c0.3,0.2,0.2,1-0.1,1.2c-1.4-0.1-2.8-0.1-4.4-0.1c-1.7,0-3.1,0-4.4,0.1c-0.3-0.1-0.4-0.9-0.1-1.2
			l0.9-0.1c1.7-0.3,1.8-0.7,1.8-4.1v-7c0-2.7-1.2-4.7-4.4-4.7c-1.8,0-3.4,0.8-4,1.7c-0.6,0.8-0.7,1.5-0.7,2.8v7.2
			c0,3.4,0.1,3.8,1.8,4.1l0.9,0.1c0.3,0.2,0.2,1-0.1,1.2c-1.3-0.1-2.6-0.1-4.3-0.1s-3.1,0-4.4,0.1c-0.3-0.1-0.4-0.9-0.1-1.2l1-0.1
			c1.7-0.2,1.8-0.7,1.8-4.1V148.5z"/>
		<path class="st0" d="M575,155.2c0,3.7,0,5.5,1.4,5.5c0.5,0,1.3-0.2,2-0.5c0.3,0.1,0.4,1.3,0,1.5c-2,0.3-4.9,1-6.2,1.5
			c-0.3,0-0.5-0.1-0.5-0.4V162c0-0.7,0-1.3-0.1-1.5h-0.2c-2.1,1.4-3.7,2.2-5.9,2.2c-5.2,0-8.7-4.1-8.7-9.1c0-6.6,5-10.9,11.4-10.9
			c1.6,0,2.6,0.2,3.2,0.4c0.2,0,0.3-0.3,0.3-0.7v-6.9c0-2.8,0-3.1-1.5-3.9l-0.5-0.3c-0.2-0.1-0.2-0.8,0-0.9c1.2-0.4,3.4-1.1,5.1-2
			c0.2,0,0.4,0.1,0.5,0.3c0,1.4-0.1,3.8-0.1,5.9v20.6L575,155.2L575,155.2z M571.5,148.1c0-0.9-0.2-1.4-0.5-1.8c-0.7-1-2.1-2-4-2
			c-4.3,0-6.5,3.7-6.5,7.8c0,4.3,2.4,8.4,7,8.4c1.3,0,2.9-0.6,3.6-1.3c0.3-0.3,0.3-1,0.3-1.7v-9.4H571.5z"/>
		<path class="st0" d="M596.9,138c0-5-0.1-5.7-3.1-5.9l-1.2-0.1c-0.3-0.2-0.2-1,0.1-1.2c2.6,0.1,4.3,0.1,6.1,0.1s3.4,0,5.8-0.1
			c0.3,0.1,0.4,1,0.1,1.2l-1.1,0.1c-2.8,0.2-2.9,1-2.9,5.9v16.4c0,3,0.1,4.2,1,5.1c0.5,0.5,1.4,1.1,5.1,1.1c4,0,5-0.2,5.8-0.6
			c0.9-0.6,2.2-2.3,3.1-4.7c0.3-0.2,1.2,0,1.2,0.3c0,0.5-1.3,5.3-2,6.6c-2.4-0.1-6.9-0.1-11.7-0.1h-4.3c-2,0-3.5,0-6.1,0.1
			c-0.3-0.1-0.4-0.9-0.1-1.2l1.4-0.1c2.7-0.3,2.8-0.9,2.8-5.9L596.9,138L596.9,138z"/>
		<path class="st0" d="M624,150c-1.2,0-1.3,0.1-1.3,1.3c0,4.8,2.8,8.8,7.8,8.8c1.6,0,2.9-0.5,4.3-2.3c0.5-0.1,0.8,0.1,0.9,0.6
			c-1.6,3.2-5,4.4-7.4,4.4c-3.1,0-5.5-1.3-6.8-3.1c-1.4-1.8-2-4.1-2-6.1c0-5.8,3.8-10.7,9.5-10.7c4.1,0,6.7,2.8,6.7,5.6
			c0,0.7-0.1,1-0.2,1.2c-0.1,0.3-0.8,0.3-2.8,0.3H624L624,150z M626.9,148.6c3.5,0,4.5-0.2,4.9-0.5c0.1-0.1,0.3-0.3,0.3-0.9
			c0-1.3-0.9-3-3.6-3c-2.8,0-5.2,2.5-5.2,4.1c0,0.1,0,0.2,0.3,0.2L626.9,148.6L626.9,148.6z"/>
		<path class="st0" d="M648,152.3c0.7-0.2,0.8-0.7,0.8-1.4v-2.2c0-1.7-0.5-4.1-3.4-4.1c-1.3,0-2.9,0.7-3,2.1c0,0.8-0.1,1.3-0.5,1.6
			c-0.7,0.6-2,0.9-2.7,0.9c-0.4,0-0.7-0.2-0.7-0.7c0-2.5,5.3-5.8,8.8-5.8c3.4,0,5.1,2,4.9,5.5l-0.3,8.2c-0.1,2.2,0.3,4.1,2.2,4.1
			c0.5,0,0.9-0.1,1.2-0.3c0.2-0.1,0.5-0.3,0.6-0.3c0.2,0,0.3,0.3,0.3,0.6c0,0.2-1.7,2.1-4,2.1c-1.1,0-2.3-0.4-3.1-1.5
			c-0.2-0.3-0.5-0.7-0.8-0.7s-0.9,0.4-1.8,0.9c-1,0.6-2.1,1.2-3.4,1.2c-1.4,0-2.5-0.4-3.3-1.1c-0.9-0.8-1.5-2-1.5-3.3
			c0-1.8,0.9-2.9,3.9-4L648,152.3z M645.1,160.6c0.9,0,2.4-0.7,2.9-1.2c0.6-0.6,0.6-1.2,0.6-2.2l0.1-2.8c0-0.5-0.2-0.6-0.5-0.6
			s-1.1,0.2-1.9,0.5c-2.8,0.9-4.2,1.7-4.2,3.5C642.1,158.6,642.7,160.6,645.1,160.6z"/>
		<path class="st0" d="M661.4,148.5c0-1.8,0-2.1-1.3-2.9l-0.4-0.3c-0.2-0.2-0.2-0.7,0-0.8c1.1-0.4,3.6-1.6,4.8-2.3
			c0.2,0,0.4,0.1,0.4,0.3v2.7c0,0.2,0,0.4,0.1,0.4c1.7-1.4,3.4-2.8,5.2-2.8c1.2,0,2.1,0.8,2.1,1.9c0,1.6-1.3,2.2-2,2.2
			c-0.5,0-0.7-0.1-1-0.3c-0.7-0.5-1.4-0.8-2.1-0.8c-0.8,0-1.3,0.4-1.7,0.9c-0.5,0.7-0.6,2-0.6,3.6v6.4c0,3.4,0.1,4,1.9,4.1l1.7,0.1
			c0.3,0.2,0.2,1-0.1,1.2c-2.2-0.1-3.6-0.1-5.2-0.1c-1.7,0-3.1,0-4.3,0.1c-0.3-0.1-0.4-0.9-0.1-1.2l0.9-0.1c1.7-0.3,1.8-0.7,1.8-4.1
			v-8.2L661.4,148.5L661.4,148.5z"/>
		<path class="st0" d="M677.2,148.5c0-1.8,0-2.1-1.3-2.9l-0.4-0.3c-0.2-0.2-0.2-0.7,0-0.8c1.1-0.4,3.8-1.6,4.7-2.3
			c0.2,0,0.4,0.1,0.5,0.3c-0.1,1.1-0.1,1.8-0.1,2.2c0,0.3,0.2,0.5,0.5,0.5c2-1.2,4.2-2.4,6.6-2.4c3.9,0,5.5,2.7,5.5,5.9v8.1
			c0,3.4,0.1,3.9,1.8,4.1l1,0.1c0.3,0.2,0.2,1-0.1,1.2c-1.4-0.1-2.8-0.1-4.4-0.1c-1.7,0-3.1,0-4.4,0.1c-0.3-0.1-0.4-0.9-0.1-1.2
			l0.9-0.1c1.7-0.3,1.8-0.7,1.8-4.1v-7c0-2.7-1.2-4.7-4.4-4.7c-1.8,0-3.4,0.8-4,1.7c-0.6,0.8-0.7,1.5-0.7,2.8v7.2
			c0,3.4,0.1,3.8,1.8,4.1l0.8,0.1c0.3,0.2,0.2,1-0.1,1.2c-1.3-0.1-2.6-0.1-4.3-0.1s-3.1,0-4.4,0.1c-0.3-0.1-0.4-0.9-0.1-1.2l1-0.1
			c1.7-0.2,1.8-0.7,1.8-4.1v-8.3H677.2z"/>
		<path class="st0" d="M702.2,148.5c0-1.8,0-2.1-1.3-2.9l-0.4-0.3c-0.2-0.2-0.2-0.7,0-0.8c1.1-0.4,3.8-1.6,4.9-2.3
			c0.2,0,0.4,0.1,0.5,0.3c-0.1,1.7-0.2,3.9-0.2,5.9v8.5c0,3.4,0.1,3.9,1.8,4.1l1,0.1c0.3,0.2,0.2,1-0.1,1.2
			c-1.4-0.1-2.8-0.1-4.4-0.1c-1.7,0-3.1,0-4.4,0.1c-0.3-0.1-0.4-0.9-0.1-1.2l1-0.1c1.7-0.2,1.8-0.7,1.8-4.1L702.2,148.5L702.2,148.5
			z M706.1,135.1c0,1.7-1.2,2.5-2.5,2.5c-1.5,0-2.4-1.1-2.4-2.4c0-1.6,1.1-2.5,2.6-2.5C705.2,132.6,706.1,133.8,706.1,135.1z"/>
		<path class="st0" d="M714.5,148.5c0-1.8,0-2.1-1.3-2.9l-0.4-0.3c-0.2-0.2-0.2-0.7,0-0.8c1.1-0.4,3.8-1.6,4.7-2.3
			c0.2,0,0.4,0.1,0.5,0.3c-0.1,1.1-0.1,1.8-0.1,2.2c0,0.3,0.2,0.5,0.5,0.5c2-1.2,4.2-2.4,6.6-2.4c3.9,0,5.5,2.7,5.5,5.9v8.1
			c0,3.4,0.1,3.9,1.8,4.1l1,0.1c0.3,0.2,0.2,1-0.1,1.2c-1.4-0.1-2.8-0.1-4.4-0.1c-1.7,0-3.1,0-4.4,0.1c-0.3-0.1-0.4-0.9-0.1-1.2
			l0.9-0.1c1.7-0.3,1.8-0.7,1.8-4.1v-7c0-2.7-1.2-4.7-4.4-4.7c-1.8,0-3.4,0.8-4,1.7c-0.6,0.8-0.7,1.5-0.7,2.8v7.2
			c0,3.4,0.1,3.8,1.8,4.1l0.9,0.1c0.3,0.2,0.2,1-0.1,1.2c-1.3-0.1-2.6-0.1-4.3-0.1s-3.1,0-4.4,0.1c-0.3-0.1-0.4-0.9-0.1-1.2l1-0.1
			c1.7-0.2,1.8-0.7,1.8-4.1V148.5z"/>
		<path class="st0" d="M755.7,144.5c0.5,0.2,0.4,1.8-0.3,1.9H752c0.1,0.8,0.1,1.6,0.1,2.4c0,3.3-1.9,7.5-7.9,7.5
			c-0.8,0-1.5-0.1-2.1-0.1c-0.6,0.3-2.1,1.2-2.1,2.6c0,1.1,1.1,2,3.3,2c1.6,0,3.5-0.1,5.6-0.1c2.6,0,6.6,0.5,6.6,5.2
			c0,5.1-5.6,8.9-11.8,8.9c-5.8,0-7.8-3.1-7.8-5.5c0-0.8,0.2-1.4,0.5-1.7c0.8-0.8,2.1-2.1,3.2-3.2c0.4-0.4,0.8-0.8,0.4-1.1
			c-1.8-0.5-3.4-2.1-3.4-3.7c0-0.2,0.2-0.4,0.7-0.8c0.8-0.5,1.7-1.3,2.5-2.2c0.2-0.3,0.5-0.7,0.5-0.9c-1.6-0.8-3.5-2.7-3.5-5.7
			c0-4.1,3.5-7.1,7.7-7.1c1.8,0,3.4,0.5,4.5,0.9c1.5,0.7,1.8,0.8,2.9,0.8L755.7,144.5L755.7,144.5z M745.8,163.6
			c-1.5,0-3.4,0.1-4.1,0.5c-1.1,0.7-2.3,2.2-2.3,4c0,2.5,2,4.7,6.3,4.7c4.2,0,7-2.4,7-5.1c0-2.9-2-4.1-5.4-4.1L745.8,163.6
			L745.8,163.6z M748.7,150.1c0-3.2-1.3-5.9-4.2-5.9c-2.3,0-4,2.1-4,5.3c0,3.4,2,5.5,4.3,5.5C747.4,155,748.7,153,748.7,150.1z"/>
	</g>
	<g>
		<rect x="46.4" y="101.3" class="st1" width="59.5" height="4.9"/>
		<path class="st1" d="M113.3,60.9c-6.4-6.2-17.6-2.3-30.2,1.7c-0.7,0.2-1.4,0-2.1-0.5c-0.5-0.5-1.1-0.9-1.7-1.2c1.8-1.1,3-3,3-5.2
			c0-3-2.2-5.6-5.2-6l2.2-2.9c0.2-0.3,0.2-0.8,0-1l-2.8-3.6c-0.1-0.1-0.3-0.2-0.4-0.2s-0.3,0.1-0.4,0.2l-2.8,3.6
			c-0.2,0.3-0.2,0.8,0,1l2.2,2.9c-2.9,0.5-5.2,3-5.2,6c0,2.2,1.2,4.2,3,5.2c-0.6,0.3-1.2,0.7-1.7,1.2c-0.6,0.5-1.4,0.7-2.1,0.5
			c-12.7-4.1-23.9-8-30.2-1.7c-7.6,7.5,1.3,19.6,4,24.5c2,3.5,3.3,7.6,3.3,10.8H76h29.8c0-3.2,1.4-7.3,3.3-10.8
			C112.1,80.5,120.9,68.4,113.3,60.9z M67.1,92.1c-2.3,0.2-4.2-2-4.9-4.9l1.9-4.4c0.2-0.5,0.1-0.9-0.3-1.3l-6-6
			c-0.3-0.3-0.6-0.4-0.8,0l-2.8,6c-0.2,0.5,0,0.9,0.3,1.3l4.5,4.5c0.9,3.5-1.5,4.8-2.8,4.8c-4.7,0-8.5-6.4-12.4-13.1
			c-3.8-6.6-5.1-11.4-2.3-15c4.8-6,17.4-1.3,27.1,3.2c-0.1,1.4,0.2,3,1.1,5C74.9,83.7,71.4,91.8,67.1,92.1z M108.6,79
			c-3.9,6.7-7.7,13.1-12.4,13.1c-1.4,0-3.8-1.3-2.8-4.8l4.5-4.5c0.3-0.3,0.5-0.7,0.3-1.3l-2.8-6c-0.2-0.4-0.5-0.3-0.8,0l-6,6
			c-0.3,0.3-0.5,0.8-0.3,1.3l1.9,4.4c-0.7,2.9-2.6,5-4.9,4.9c-4.3-0.3-7.8-8.4-2.6-19.9c0.9-1.9,1.2-3.6,1.1-5
			c9.8-4.5,22.3-9.2,27.1-3.2C113.7,67.6,112.4,72.4,108.6,79z"/>
	</g>
</g>
</svg>
